solid Warp Core MARC Lights1
facet normal 0.555570233019601 0.831469612302546 3.07275471462182e-17
outer loop
vertex 30.6918371174943 12.2223836617009 3.21050551073473e-14
vertex 31.5124393242206 11.6740747969369 9.00000000000003
vertex 31.5124393242206 11.6740747969369 2.99682919731081e-14
endloop
endfacet
facet normal 0.555570233019601 0.831469612302546 3.07275471462182e-17
outer loop
vertex 31.5124393242206 11.6740747969369 9.00000000000003
vertex 30.6918371174943 12.2223836617009 3.21050551073473e-14
vertex 30.6918371174943 12.2223836617009 9.00000000000003
endloop
endfacet
facet normal 0.555570233019601 0.831469612302546 3.07275471462183e-17
outer loop
vertex 31.5124393242206 11.6740747969369 2.99682919731081e-14
vertex 35.1884026330826 9.21787464018024 9.00000000000003
vertex 35.1884026330826 9.21787464018024 2.7158245964636e-14
endloop
endfacet
facet normal 0.555570233019601 0.831469612302546 3.07275471462183e-17
outer loop
vertex 35.1884026330826 9.21787464018024 9.00000000000003
vertex 31.5124393242206 11.6740747969369 2.99682919731081e-14
vertex 31.5124393242206 11.6740747969369 9.00000000000003
endloop
endfacet
facet normal 1.0 -0.0 -0.0
outer loop
vertex 35.1884026330826 9.21787464018024 2.7158245964636e-14
vertex 35.1884026330826 5.61753047194797 9.00000000000003
vertex 35.1884026330826 5.61753047194797 2.75200924551059e-14
endloop
endfacet
facet normal 1.0 -0.0 -0.0
outer loop
vertex 35.1884026330826 5.61753047194797 9.00000000000003
vertex 35.1884026330826 9.21787464018024 2.7158245964636e-14
vertex 35.1884026330826 9.21787464018024 9.00000000000003
endloop
endfacet
facet normal -0.555570233019602 -0.831469612302546 1.02037372933625e-32
outer loop
vertex 35.1884026330826 5.61753047194797 2.75200924551059e-14
vertex 29.7285999789217 9.26565397271336 9.00000000000003
vertex 29.7285999789217 9.26565397271336 2.74478306186194e-14
endloop
endfacet
facet normal -0.555570233019602 -0.831469612302546 1.02037372933625e-32
outer loop
vertex 29.7285999789217 9.26565397271336 9.00000000000003
vertex 35.1884026330826 5.61753047194797 2.75200924551059e-14
vertex 35.1884026330826 5.61753047194797 9.00000000000003
endloop
endfacet
facet normal -0.555570233019603 -0.831469612302545 -1.98421158740835e-18
outer loop
vertex 29.7285999789217 9.26565397271336 9.00000000000003
vertex 28.8655528304681 9.84232364082719 3.20622279950887e-14
vertex 29.7285999789217 9.26565397271336 2.74478306186194e-14
endloop
endfacet
facet normal -0.555570233019603 -0.831469612302545 -1.98421158740835e-18
outer loop
vertex 28.8655528304681 9.84232364082719 3.20622279950887e-14
vertex 29.7285999789217 9.26565397271336 9.00000000000003
vertex 28.8655528304681 9.84232364082719 9.00000000000003
endloop
endfacet
facet normal -0.659345815100068 -0.751839807478978 1.56643440479858e-17
outer loop
vertex 28.8655528304681 9.84232364082719 3.20622279950887e-14
vertex 22.8664863476207 15.1033637462131 9.00000000000003
vertex 22.8664863476207 15.1033637462131 3.13871965417819e-14
endloop
endfacet
facet normal -0.659345815100068 -0.751839807478978 1.56643440479858e-17
outer loop
vertex 22.8664863476207 15.1033637462131 9.00000000000003
vertex 28.8655528304681 9.84232364082719 3.20622279950887e-14
vertex 28.8655528304681 9.84232364082719 9.00000000000003
endloop
endfacet
facet normal -0.751839807478977 -0.65934581510007 -1.82203166336253e-17
outer loop
vertex 17.6054462422347 21.1024302290606 9.00000000000003
vertex 22.8664863476207 15.1033637462131 3.13871965417819e-14
vertex 22.8664863476207 15.1033637462131 9.00000000000003
endloop
endfacet
facet normal -0.751839807478977 -0.65934581510007 -1.82203166336253e-17
outer loop
vertex 22.8664863476207 15.1033637462131 3.13871965417819e-14
vertex 17.6054462422347 21.1024302290606 9.00000000000003
vertex 17.6054462422347 21.1024302290606 3.0754126353776e-14
endloop
endfacet
facet normal -0.831469612302543 -0.555570233019605 -1.04220664101954e-19
outer loop
vertex 13.1724503691493 27.7368773985925 9.00000000000003
vertex 17.6054462422347 21.1024302290606 3.0754126353776e-14
vertex 17.6054462422347 21.1024302290606 9.00000000000003
endloop
endfacet
facet normal -0.831469612302543 -0.555570233019605 -1.04220664101954e-19
outer loop
vertex 17.6054462422347 21.1024302290606 3.0754126353776e-14
vertex 13.1724503691493 27.7368773985925 9.00000000000003
vertex 13.1724503691493 27.7368773985925 3.01738494375081e-14
endloop
endfacet
facet normal -0.896872741532688 -0.442288690219001 1.69884578880604e-19
outer loop
vertex 9.64334851681156 34.893188024322 9.00000000000003
vertex 13.1724503691493 27.7368773985925 3.01738494375081e-14
vertex 13.1724503691493 27.7368773985925 9.00000000000003
endloop
endfacet
facet normal -0.896872741532688 -0.442288690219001 1.69884578880604e-19
outer loop
vertex 13.1724503691493 27.7368773985925 3.01738494375081e-14
vertex 9.64334851681156 34.893188024322 9.00000000000003
vertex 9.64334851681156 34.893188024322 2.96562944918985e-14
endloop
endfacet
facet normal -0.946930129495105 -0.321439465303163 -8.88263594344335e-18
outer loop
vertex 7.07852459636688 42.4489156473387 9.00000000000003
vertex 9.64334851681156 34.893188024322 2.96562944918985e-14
vertex 9.64334851681156 34.893188024322 9.00000000000003
endloop
endfacet
facet normal -0.946930129495105 -0.321439465303163 -8.88263594344335e-18
outer loop
vertex 9.64334851681156 34.893188024322 2.96562944918985e-14
vertex 7.07852459636688 42.4489156473387 9.00000000000003
vertex 7.07852459636688 42.4489156473387 2.92103170255602e-14
endloop
endfacet
facet normal -0.98078528040323 -0.195090322016129 9.57653949044494e-33
outer loop
vertex 5.5218634561976 50.2747796731694 9.00000000000003
vertex 7.07852459636688 42.4489156473387 2.92103170255602e-14
vertex 7.07852459636688 42.4489156473387 9.00000000000003
endloop
endfacet
facet normal -0.98078528040323 -0.195090322016129 9.57653949044494e-33
outer loop
vertex 7.07852459636688 42.4489156473387 2.92103170255602e-14
vertex 5.5218634561976 50.2747796731694 9.00000000000003
vertex 5.5218634561976 50.2747796731694 2.88435478365903e-14
endloop
endfacet
facet normal -0.997858923238603 -0.0654031292301445 1.55557723717939e-18
outer loop
vertex 5.00000000000002 58.2368773985925 9.00000000000003
vertex 5.5218634561976 50.2747796731694 2.88435478365903e-14
vertex 5.5218634561976 50.2747796731694 9.00000000000003
endloop
endfacet
facet normal -0.997858923238603 -0.0654031292301445 1.55557723717939e-18
outer loop
vertex 5.5218634561976 50.2747796731694 2.88435478365903e-14
vertex 5.00000000000002 58.2368773985925 9.00000000000003
vertex 5.00000000000002 58.2368773985925 2.85622624474998e-14
endloop
endfacet
facet normal -0.997858923238604 0.0654031292301414 8.39227702176404e-20
outer loop
vertex 5.52186345619758 66.1989751240156 9.00000000000003
vertex 5.00000000000002 58.2368773985925 2.85622624474998e-14
vertex 5.00000000000002 58.2368773985925 9.00000000000003
endloop
endfacet
facet normal -0.997858923238604 0.0654031292301414 8.39227702176404e-20
outer loop
vertex 5.00000000000002 58.2368773985925 2.85622624474998e-14
vertex 5.52186345619758 66.1989751240156 9.00000000000003
vertex 5.52186345619758 66.1989751240156 2.83712737292831e-14
endloop
endfacet
facet normal -0.98078528040323 0.195090322016128 0.0
outer loop
vertex 7.07852459636684 74.0248391498463 9.00000000000003
vertex 5.52186345619758 66.1989751240156 2.83712737292831e-14
vertex 5.52186345619758 66.1989751240156 9.00000000000003
endloop
endfacet
facet normal -0.98078528040323 0.195090322016128 0.0
outer loop
vertex 5.52186345619758 66.1989751240156 2.83712737292831e-14
vertex 7.07852459636684 74.0248391498463 9.00000000000003
vertex 7.07852459636684 74.0248391498463 2.8273849551861e-14
endloop
endfacet
facet normal -0.946930129495106 0.32143946530316 0.0
outer loop
vertex 9.6433485168115 81.580566772863 9.00000000000003
vertex 7.07852459636684 74.0248391498463 2.8273849551861e-14
vertex 7.07852459636684 74.0248391498463 9.00000000000003
endloop
endfacet
facet normal -0.946930129495106 0.32143946530316 0.0
outer loop
vertex 7.07852459636684 74.0248391498463 2.8273849551861e-14
vertex 9.6433485168115 81.580566772863 9.00000000000003
vertex 9.6433485168115 81.580566772863 2.82716568699202e-14
endloop
endfacet
facet normal -0.896872741532689 0.442288690218999 0.0
outer loop
vertex 13.1724503691492 88.7368773985925 9.00000000000003
vertex 9.6433485168115 81.580566772863 2.82716568699202e-14
vertex 9.6433485168115 81.580566772863 9.00000000000003
endloop
endfacet
facet normal -0.896872741532689 0.442288690218999 0.0
outer loop
vertex 9.6433485168115 81.580566772863 2.82716568699202e-14
vertex 13.1724503691492 88.7368773985925 9.00000000000003
vertex 13.1724503691492 88.7368773985925 2.83647332008567e-14
endloop
endfacet
facet normal -0.831469612302546 0.555570233019601 0.0
outer loop
vertex 17.6054462422346 95.3713245681245 9.00000000000003
vertex 13.1724503691492 88.7368773985925 2.83647332008567e-14
vertex 13.1724503691492 88.7368773985925 9.00000000000003
endloop
endfacet
facet normal -0.831469612302546 0.555570233019601 0.0
outer loop
vertex 13.1724503691492 88.7368773985925 2.83647332008567e-14
vertex 17.6054462422346 95.3713245681245 9.00000000000003
vertex 17.6054462422346 95.3713245681245 2.85514859828425e-14
endloop
endfacet
facet normal -0.751839807478978 0.659345815100068 7.66791775691826e-18
outer loop
vertex 22.8664863476206 101.370391050972 9.00000000000003
vertex 17.6054462422346 95.3713245681245 2.85514859828425e-14
vertex 17.6054462422346 95.3713245681245 9.00000000000003
endloop
endfacet
facet normal -0.751839807478978 0.659345815100068 7.66791775691826e-18
outer loop
vertex 17.6054462422346 95.3713245681245 2.85514859828425e-14
vertex 22.8664863476206 101.370391050972 9.00000000000003
vertex 22.8664863476206 101.370391050972 2.88287198240001e-14
endloop
endfacet
facet normal -0.659345815100071 0.751839807478976 -1.79990197876172e-31
outer loop
vertex 22.8664863476206 101.370391050972 9.00000000000003
vertex 28.865552830468 106.631431156358 2.91916911764437e-14
vertex 22.8664863476206 101.370391050972 2.88287198240001e-14
endloop
endfacet
facet normal -0.659345815100071 0.751839807478976 -1.79990197876172e-31
outer loop
vertex 28.865552830468 106.631431156358 2.91916911764437e-14
vertex 22.8664863476206 101.370391050972 9.00000000000003
vertex 28.865552830468 106.631431156358 9.00000000000003
endloop
endfacet
facet normal -0.555570233019604 0.831469612302544 3.86420251071523e-18
outer loop
vertex 28.865552830468 106.631431156358 9.00000000000003
vertex 35.4999999999999 111.064427029443 2.96341894996983e-14
vertex 28.865552830468 106.631431156358 2.91916911764437e-14
endloop
endfacet
facet normal -0.555570233019604 0.831469612302544 3.86420251071523e-18
outer loop
vertex 35.4999999999999 111.064427029443 2.96341894996983e-14
vertex 28.865552830468 106.631431156358 9.00000000000003
vertex 35.4999999999999 111.064427029443 9.00000000000003
endloop
endfacet
facet normal -0.442288690219002 0.896872741532688 -1.69884578880378e-19
outer loop
vertex 35.4999999999999 111.064427029443 9.00000000000003
vertex 42.6563106257295 114.593528881781 3.01486435247692e-14
vertex 35.4999999999999 111.064427029443 2.96341894996983e-14
endloop
endfacet
facet normal -0.442288690219002 0.896872741532688 -1.69884578880378e-19
outer loop
vertex 42.6563106257295 114.593528881781 3.01486435247692e-14
vertex 35.4999999999999 111.064427029443 9.00000000000003
vertex 42.6563106257295 114.593528881781 7.50000000000003
endloop
endfacet
facet normal -0.442288690219002 0.896872741532688 -1.69884578880378e-19
outer loop
vertex 42.6563106257295 114.593528881781 7.50000000000003
vertex 35.4999999999999 111.064427029443 9.00000000000003
vertex 42.6563106257295 114.593528881781 9.00000000000003
endloop
endfacet
facet normal 0.321439465303165 -0.946930129495105 1.59029676371953e-17
outer loop
vertex 50.9884953840537 114.260575323359 3.17454578474278e-14
vertex 43.8043609228247 111.821890284247 9.00000000000003
vertex 43.8043609228247 111.821890284247 3.12682572063391e-14
endloop
endfacet
facet normal 0.321439465303165 -0.946930129495105 1.59029676371953e-17
outer loop
vertex 43.8043609228247 111.821890284247 9.00000000000003
vertex 50.9884953840537 114.260575323359 3.17454578474278e-14
vertex 50.9884953840537 114.260575323359 9.00000000000003
endloop
endfacet
facet normal 0.442288690219003 -0.896872741532687 0.0
outer loop
vertex 43.8043609228247 111.821890284247 3.12682572063391e-14
vertex 37.0 108.46635081809 9.00000000000003
vertex 37.0 108.46635081809 3.08350529155569e-14
endloop
endfacet
facet normal 0.442288690219003 -0.896872741532687 0.0
outer loop
vertex 37.0 108.46635081809 9.00000000000003
vertex 43.8043609228247 111.821890284247 3.12682572063391e-14
vertex 43.8043609228247 111.821890284247 9.00000000000003
endloop
endfacet
facet normal 0.555570233019603 -0.831469612302544 -1.0422066410153e-19
outer loop
vertex 37.0 108.46635081809 3.08350529155569e-14
vertex 30.6918371174942 104.251371135484 9.00000000000003
vertex 30.6918371174942 104.251371135484 3.04532572206036e-14
endloop
endfacet
facet normal 0.555570233019603 -0.831469612302544 -1.0422066410153e-19
outer loop
vertex 30.6918371174942 104.251371135484 9.00000000000003
vertex 37.0 108.46635081809 3.08350529155569e-14
vertex 37.0 108.46635081809 9.00000000000003
endloop
endfacet
facet normal 0.65934581510007 -0.751839807478977 3.41840249333612e-17
outer loop
vertex 30.6918371174942 104.251371135484 3.04532572206036e-14
vertex 24.9878066911802 99.2490707074123 9.00000000000003
vertex 24.9878066911802 99.2490707074123 3.01294027516734e-14
endloop
endfacet
facet normal 0.65934581510007 -0.751839807478977 3.41840249333612e-17
outer loop
vertex 24.9878066911802 99.2490707074123 9.00000000000003
vertex 30.6918371174942 104.251371135484 3.04532572206036e-14
vertex 30.6918371174942 104.251371135484 9.00000000000003
endloop
endfacet
facet normal 0.751839807478978 -0.659345815100068 3.92393748618647e-17
outer loop
vertex 24.9878066911802 99.2490707074123 3.01294027516734e-14
vertex 19.9855062631083 93.5450402810983 9.00000000000003
vertex 19.9855062631083 93.5450402810983 2.98690307485192e-14
endloop
endfacet
facet normal 0.751839807478978 -0.659345815100068 3.92393748618647e-17
outer loop
vertex 19.9855062631083 93.5450402810983 9.00000000000003
vertex 24.9878066911802 99.2490707074123 3.01294027516734e-14
vertex 24.9878066911802 99.2490707074123 9.00000000000003
endloop
endfacet
facet normal 0.831469612302546 -0.555570233019601 4.36233282072717e-17
outer loop
vertex 19.9855062631083 93.5450402810983 2.98690307485192e-14
vertex 15.7705265805025 87.2368773985925 9.00000000000003
vertex 15.7705265805025 87.2368773985925 2.96765962483037e-14
endloop
endfacet
facet normal 0.831469612302546 -0.555570233019601 4.36233282072717e-17
outer loop
vertex 15.7705265805025 87.2368773985925 9.00000000000003
vertex 19.9855062631083 93.5450402810983 2.98690307485192e-14
vertex 19.9855062631083 93.5450402810983 9.00000000000003
endloop
endfacet
facet normal 0.896872741532689 -0.442288690219001 4.72608743123807e-17
outer loop
vertex 15.7705265805025 87.2368773985925 2.96765962483037e-14
vertex 12.4149871143454 80.4325164757677 9.00000000000003
vertex 12.4149871143454 80.4325164757677 2.95553918586786e-14
endloop
endfacet
facet normal 0.896872741532689 -0.442288690219001 4.72608743123807e-17
outer loop
vertex 12.4149871143454 80.4325164757677 9.00000000000003
vertex 15.7705265805025 87.2368773985925 2.96765962483037e-14
vertex 15.7705265805025 87.2368773985925 9.00000000000003
endloop
endfacet
facet normal 0.946930129495106 -0.32143946530316 5.0089773754815e-17
outer loop
vertex 12.4149871143454 80.4325164757677 2.95553918586786e-14
vertex 9.97630207523404 73.2483820145387 9.00000000000003
vertex 9.97630207523404 73.2483820145387 2.95074914203545e-14
endloop
endfacet
facet normal 0.946930129495106 -0.32143946530316 5.0089773754815e-17
outer loop
vertex 9.97630207523404 73.2483820145387 9.00000000000003
vertex 12.4149871143454 80.4325164757677 2.95553918586786e-14
vertex 12.4149871143454 80.4325164757677 9.00000000000003
endloop
endfacet
facet normal 0.980785280403231 -0.195090322016126 5.20616232807955e-17
outer loop
vertex 9.97630207523404 73.2483820145387 2.95074914203545e-14
vertex 8.49619804031901 65.8073965473555 9.00000000000003
vertex 8.49619804031901 65.8073965473555 2.95337145231116e-14
endloop
endfacet
facet normal 0.980785280403231 -0.195090322016126 5.20616232807955e-17
outer loop
vertex 8.49619804031901 65.8073965473555 9.00000000000003
vertex 9.97630207523404 73.2483820145387 2.95074914203545e-14
vertex 9.97630207523404 73.2483820145387 9.00000000000003
endloop
endfacet
facet normal 0.997858923238604 -0.065403129230142 5.31426839982327e-17
outer loop
vertex 8.49619804031901 65.8073965473555 2.95337145231116e-14
vertex 8.00000000000002 58.2368773985925 9.00000000000003
vertex 8.00000000000002 58.2368773985925 2.96336124823915e-14
endloop
endfacet
facet normal 0.997858923238604 -0.065403129230142 5.31426839982327e-17
outer loop
vertex 8.00000000000002 58.2368773985925 9.00000000000003
vertex 8.49619804031901 65.8073965473555 2.95337145231116e-14
vertex 8.49619804031901 65.8073965473555 9.00000000000003
endloop
endfacet
facet normal 0.997858923238604 0.0654031292301437 5.33144586585245e-17
outer loop
vertex 8.00000000000002 58.2368773985925 2.96336124823915e-14
vertex 8.49619804031902 50.6663582498295 9.00000000000003
vertex 8.49619804031902 50.6663582498295 2.98054760164138e-14
endloop
endfacet
facet normal 0.997858923238604 0.0654031292301437 5.33144586585245e-17
outer loop
vertex 8.49619804031902 50.6663582498295 9.00000000000003
vertex 8.00000000000002 58.2368773985925 2.96336124823915e-14
vertex 8.00000000000002 58.2368773985925 9.00000000000003
endloop
endfacet
facet normal 0.98078528040323 0.195090322016131 5.25740081496085e-17
outer loop
vertex 8.49619804031902 50.6663582498295 2.98054760164138e-14
vertex 9.97630207523408 43.2253727826463 9.00000000000003
vertex 9.97630207523408 43.2253727826463 3.00463644924619e-14
endloop
endfacet
facet normal 0.98078528040323 0.195090322016131 5.25740081496085e-17
outer loop
vertex 9.97630207523408 43.2253727826463 9.00000000000003
vertex 8.49619804031902 50.6663582498295 2.98054760164138e-14
vertex 8.49619804031902 50.6663582498295 9.00000000000003
endloop
endfacet
facet normal 0.946930129495105 0.321439465303163 5.09340017849838e-17
outer loop
vertex 9.97630207523408 43.2253727826463 3.00463644924619e-14
vertex 12.4149871143454 36.0412383214173 9.00000000000003
vertex 12.4149871143454 36.0412383214173 3.03521562419236e-14
endloop
endfacet
facet normal 0.946930129495105 0.321439465303163 5.09340017849838e-17
outer loop
vertex 12.4149871143454 36.0412383214173 9.00000000000003
vertex 9.97630207523408 43.2253727826463 3.00463644924619e-14
vertex 9.97630207523408 43.2253727826463 9.00000000000003
endloop
endfacet
facet normal 0.896872741532688 0.442288690219002 4.84225005282449e-17
outer loop
vertex 12.4149871143454 36.0412383214173 3.03521562419236e-14
vertex 15.7705265805026 29.2368773985925 9.00000000000003
vertex 15.7705265805026 29.2368773985925 3.07176190831842e-14
endloop
endfacet
facet normal 0.896872741532688 0.442288690219002 4.84225005282449e-17
outer loop
vertex 15.7705265805026 29.2368773985925 9.00000000000003
vertex 12.4149871143454 36.0412383214173 3.03521562419236e-14
vertex 12.4149871143454 36.0412383214173 9.00000000000003
endloop
endfacet
facet normal 0.831469612302544 0.555570233019604 4.50824768622142e-17
outer loop
vertex 15.7705265805026 29.2368773985925 3.07176190831842e-14
vertex 19.9855062631084 22.9287145160867 9.00000000000003
vertex 19.9855062631084 22.9287145160867 3.11364998457043e-14
endloop
endfacet
facet normal 0.831469612302544 0.555570233019604 4.50824768622142e-17
outer loop
vertex 19.9855062631084 22.9287145160867 9.00000000000003
vertex 15.7705265805026 29.2368773985925 3.07176190831842e-14
vertex 15.7705265805026 29.2368773985925 9.00000000000003
endloop
endfacet
facet normal 0.751839807478977 0.65934581510007 4.09710795178471e-17
outer loop
vertex 19.9855062631084 22.9287145160867 3.11364998457043e-14
vertex 24.9878066911803 17.2246840897728 9.00000000000003
vertex 24.9878066911803 17.2246840897728 3.16016313635014e-14
endloop
endfacet
facet normal 0.751839807478977 0.65934581510007 4.09710795178471e-17
outer loop
vertex 24.9878066911803 17.2246840897728 9.00000000000003
vertex 19.9855062631084 22.9287145160867 3.11364998457043e-14
vertex 19.9855062631084 22.9287145160867 9.00000000000003
endloop
endfacet
facet normal 0.659345815100068 0.751839807478978 3.61586556436003e-17
outer loop
vertex 24.9878066911803 17.2246840897728 9.00000000000003
vertex 30.6918371174943 12.2223836617009 3.21050551073473e-14
vertex 24.9878066911803 17.2246840897728 3.16016313635014e-14
endloop
endfacet
facet normal 0.659345815100068 0.751839807478978 3.61586556436003e-17
outer loop
vertex 30.6918371174943 12.2223836617009 3.21050551073473e-14
vertex 24.9878066911803 17.2246840897728 9.00000000000003
vertex 30.6918371174943 12.2223836617009 9.00000000000003
endloop
endfacet
facet normal -5.09571753018058e-17 -1.96851403274334e-18 1.0
outer loop
vertex 7.07852459636688 42.4489156473387 9.00000000000003
vertex 8.49619804031902 50.6663582498295 9.00000000000003
vertex 8.00000000000002 58.2368773985925 9.00000000000003
endloop
endfacet
facet normal -5.09571753018058e-17 -1.96851403274334e-18 1.0
outer loop
vertex 8.49619804031902 50.6663582498295 9.00000000000003
vertex 7.07852459636688 42.4489156473387 9.00000000000003
vertex 9.64334851681156 34.893188024322 9.00000000000003
endloop
endfacet
facet normal -5.09571753018058e-17 -1.96851403274334e-18 1.0
outer loop
vertex 8.49619804031902 50.6663582498295 9.00000000000003
vertex 9.64334851681156 34.893188024322 9.00000000000003
vertex 9.97630207523408 43.2253727826463 9.00000000000003
endloop
endfacet
facet normal -5.09571753018058e-17 -1.96851403274334e-18 1.0
outer loop
vertex 9.97630207523408 43.2253727826463 9.00000000000003
vertex 9.64334851681156 34.893188024322 9.00000000000003
vertex 13.1724503691493 27.7368773985925 9.00000000000003
endloop
endfacet
facet normal -5.09571753018058e-17 -1.96851403274334e-18 1.0
outer loop
vertex 9.97630207523408 43.2253727826463 9.00000000000003
vertex 13.1724503691493 27.7368773985925 9.00000000000003
vertex 12.4149871143454 36.0412383214173 9.00000000000003
endloop
endfacet
facet normal -5.09571753018058e-17 -1.96851403274334e-18 1.0
outer loop
vertex 12.4149871143454 36.0412383214173 9.00000000000003
vertex 13.1724503691493 27.7368773985925 9.00000000000003
vertex 15.7705265805026 29.2368773985925 9.00000000000003
endloop
endfacet
facet normal -5.09571753018058e-17 -1.96851403274334e-18 1.0
outer loop
vertex 15.7705265805026 29.2368773985925 9.00000000000003
vertex 13.1724503691493 27.7368773985925 9.00000000000003
vertex 17.6054462422347 21.1024302290606 9.00000000000003
endloop
endfacet
facet normal -5.09571753018058e-17 -1.96851403274334e-18 1.0
outer loop
vertex 15.7705265805026 29.2368773985925 9.00000000000003
vertex 17.6054462422347 21.1024302290606 9.00000000000003
vertex 19.9855062631084 22.9287145160867 9.00000000000003
endloop
endfacet
facet normal -5.09571753018058e-17 -1.96851403274334e-18 1.0
outer loop
vertex 19.9855062631084 22.9287145160867 9.00000000000003
vertex 17.6054462422347 21.1024302290606 9.00000000000003
vertex 22.8664863476207 15.1033637462131 9.00000000000003
endloop
endfacet
facet normal -5.09571753018058e-17 -1.96851403274334e-18 1.0
outer loop
vertex 19.9855062631084 22.9287145160867 9.00000000000003
vertex 22.8664863476207 15.1033637462131 9.00000000000003
vertex 24.9878066911803 17.2246840897728 9.00000000000003
endloop
endfacet
facet normal -5.09571753018058e-17 -1.96851403274334e-18 1.0
outer loop
vertex 24.9878066911803 17.2246840897728 9.00000000000003
vertex 22.8664863476207 15.1033637462131 9.00000000000003
vertex 28.8655528304681 9.84232364082719 9.00000000000003
endloop
endfacet
facet normal -5.09571753018058e-17 -1.96851403274334e-18 1.0
outer loop
vertex 24.9878066911803 17.2246840897728 9.00000000000003
vertex 28.8655528304681 9.84232364082719 9.00000000000003
vertex 30.6918371174943 12.2223836617009 9.00000000000003
endloop
endfacet
facet normal -5.09571753018058e-17 -1.96851403274334e-18 1.0
outer loop
vertex 30.6918371174943 12.2223836617009 9.00000000000003
vertex 28.8655528304681 9.84232364082719 9.00000000000003
vertex 29.7285999789217 9.26565397271336 9.00000000000003
endloop
endfacet
facet normal -5.09571753018058e-17 -1.96851403274334e-18 1.0
outer loop
vertex 30.6918371174943 12.2223836617009 9.00000000000003
vertex 29.7285999789217 9.26565397271336 9.00000000000003
vertex 35.1884026330826 5.61753047194797 9.00000000000003
endloop
endfacet
facet normal -5.09571753018058e-17 -1.96851403274334e-18 1.0
outer loop
vertex 30.6918371174943 12.2223836617009 9.00000000000003
vertex 35.1884026330826 5.61753047194797 9.00000000000003
vertex 31.5124393242206 11.6740747969369 9.00000000000003
endloop
endfacet
facet normal -5.09571753018058e-17 -1.96851403274334e-18 1.0
outer loop
vertex 31.5124393242206 11.6740747969369 9.00000000000003
vertex 35.1884026330826 5.61753047194797 9.00000000000003
vertex 35.1884026330826 9.21787464018024 9.00000000000003
endloop
endfacet
facet normal -5.09571753018058e-17 -1.96851403274334e-18 1.0
outer loop
vertex 5.5218634561976 50.2747796731694 9.00000000000003
vertex 5.52186345619758 66.1989751240156 9.00000000000003
vertex 5.00000000000002 58.2368773985925 9.00000000000003
endloop
endfacet
facet normal -5.09571753018058e-17 -1.96851403274334e-18 1.0
outer loop
vertex 5.52186345619758 66.1989751240156 9.00000000000003
vertex 5.5218634561976 50.2747796731694 9.00000000000003
vertex 7.07852459636684 74.0248391498463 9.00000000000003
endloop
endfacet
facet normal -5.09571753018058e-17 -1.96851403274334e-18 1.0
outer loop
vertex 7.07852459636684 74.0248391498463 9.00000000000003
vertex 5.5218634561976 50.2747796731694 9.00000000000003
vertex 7.07852459636688 42.4489156473387 9.00000000000003
endloop
endfacet
facet normal -5.09571753018058e-17 -1.96851403274334e-18 1.0
outer loop
vertex 7.07852459636684 74.0248391498463 9.00000000000003
vertex 7.07852459636688 42.4489156473387 9.00000000000003
vertex 8.00000000000002 58.2368773985925 9.00000000000003
endloop
endfacet
facet normal -5.09571753018058e-17 -1.96851403274334e-18 1.0
outer loop
vertex 7.07852459636684 74.0248391498463 9.00000000000003
vertex 8.00000000000002 58.2368773985925 9.00000000000003
vertex 8.49619804031901 65.8073965473555 9.00000000000003
endloop
endfacet
facet normal -5.09571753018058e-17 -1.96851403274334e-18 1.0
outer loop
vertex 7.07852459636684 74.0248391498463 9.00000000000003
vertex 8.49619804031901 65.8073965473555 9.00000000000003
vertex 9.6433485168115 81.580566772863 9.00000000000003
endloop
endfacet
facet normal -5.09571753018058e-17 -1.96851403274334e-18 1.0
outer loop
vertex 9.6433485168115 81.580566772863 9.00000000000003
vertex 8.49619804031901 65.8073965473555 9.00000000000003
vertex 9.97630207523404 73.2483820145387 9.00000000000003
endloop
endfacet
facet normal -5.09571753018058e-17 -1.96851403274334e-18 1.0
outer loop
vertex 9.6433485168115 81.580566772863 9.00000000000003
vertex 9.97630207523404 73.2483820145387 9.00000000000003
vertex 13.1724503691492 88.7368773985925 9.00000000000003
endloop
endfacet
facet normal -5.09571753018058e-17 -1.96851403274334e-18 1.0
outer loop
vertex 13.1724503691492 88.7368773985925 9.00000000000003
vertex 9.97630207523404 73.2483820145387 9.00000000000003
vertex 12.4149871143454 80.4325164757677 9.00000000000003
endloop
endfacet
facet normal -5.09571753018058e-17 -1.96851403274334e-18 1.0
outer loop
vertex 13.1724503691492 88.7368773985925 9.00000000000003
vertex 12.4149871143454 80.4325164757677 9.00000000000003
vertex 15.7705265805025 87.2368773985925 9.00000000000003
endloop
endfacet
facet normal -5.09571753018058e-17 -1.96851403274334e-18 1.0
outer loop
vertex 13.1724503691492 88.7368773985925 9.00000000000003
vertex 15.7705265805025 87.2368773985925 9.00000000000003
vertex 17.6054462422346 95.3713245681245 9.00000000000003
endloop
endfacet
facet normal -5.09571753018058e-17 -1.96851403274334e-18 1.0
outer loop
vertex 17.6054462422346 95.3713245681245 9.00000000000003
vertex 15.7705265805025 87.2368773985925 9.00000000000003
vertex 19.9855062631083 93.5450402810983 9.00000000000003
endloop
endfacet
facet normal -5.09571753018058e-17 -1.96851403274334e-18 1.0
outer loop
vertex 17.6054462422346 95.3713245681245 9.00000000000003
vertex 19.9855062631083 93.5450402810983 9.00000000000003
vertex 22.8664863476206 101.370391050972 9.00000000000003
endloop
endfacet
facet normal -5.09571753018058e-17 -1.96851403274334e-18 1.0
outer loop
vertex 22.8664863476206 101.370391050972 9.00000000000003
vertex 19.9855062631083 93.5450402810983 9.00000000000003
vertex 24.9878066911802 99.2490707074123 9.00000000000003
endloop
endfacet
facet normal -5.09571753018058e-17 -1.96851403274334e-18 1.0
outer loop
vertex 22.8664863476206 101.370391050972 9.00000000000003
vertex 24.9878066911802 99.2490707074123 9.00000000000003
vertex 28.865552830468 106.631431156358 9.00000000000003
endloop
endfacet
facet normal -5.09571753018058e-17 -1.96851403274334e-18 1.0
outer loop
vertex 28.865552830468 106.631431156358 9.00000000000003
vertex 24.9878066911802 99.2490707074123 9.00000000000003
vertex 30.6918371174942 104.251371135484 9.00000000000003
endloop
endfacet
facet normal -5.09571753018058e-17 -1.96851403274334e-18 1.0
outer loop
vertex 28.865552830468 106.631431156358 9.00000000000003
vertex 30.6918371174942 104.251371135484 9.00000000000003
vertex 35.4999999999999 111.064427029443 9.00000000000003
endloop
endfacet
facet normal -5.09571753018058e-17 -1.96851403274334e-18 1.0
outer loop
vertex 35.4999999999999 111.064427029443 9.00000000000003
vertex 30.6918371174942 104.251371135484 9.00000000000003
vertex 37.0 108.46635081809 9.00000000000003
endloop
endfacet
facet normal -5.09571753018058e-17 -1.96851403274334e-18 1.0
outer loop
vertex 35.4999999999999 111.064427029443 9.00000000000003
vertex 37.0 108.46635081809 9.00000000000003
vertex 42.6563106257295 114.593528881781 9.00000000000003
endloop
endfacet
facet normal -5.09571753018058e-17 -1.96851403274334e-18 1.0
outer loop
vertex 42.6563106257295 114.593528881781 9.00000000000003
vertex 37.0 108.46635081809 9.00000000000003
vertex 43.8043609228247 111.821890284247 9.00000000000003
endloop
endfacet
facet normal -5.09571753018058e-17 -1.96851403274334e-18 1.0
outer loop
vertex 42.6563106257295 114.593528881781 9.00000000000003
vertex 43.8043609228247 111.821890284247 9.00000000000003
vertex 50.2120382487463 117.158352802226 9.00000000000003
endloop
endfacet
facet normal -5.09571753018058e-17 -1.96851403274334e-18 1.0
outer loop
vertex 50.2120382487463 117.158352802226 9.00000000000003
vertex 43.8043609228247 111.821890284247 9.00000000000003
vertex 50.9884953840537 114.260575323359 9.00000000000003
endloop
endfacet
facet normal -0.881921264348356 0.471396736825995 -1.2616038150621e-18
outer loop
vertex 42.5458780620857 119.824957344855 7.50000000000003
vertex 41.685739206595 118.215750730365 3.38395977905748e-14
vertex 41.685739206595 118.215750730365 7.50000000000003
endloop
endfacet
facet normal -0.881921264348356 0.471396736825995 -1.2616038150621e-18
outer loop
vertex 41.685739206595 118.215750730365 3.38395977905748e-14
vertex 42.5458780620857 119.824957344855 7.50000000000003
vertex 42.5458780620857 119.824957344855 3.80695475143966e-14
endloop
endfacet
facet normal 7.16649516847055e-17 6.12519327460686e-18 -1.0
outer loop
vertex 42.5458780620857 119.824957344855 3.80695475143966e-14
vertex 42.6563106257295 114.593528881781 3.01486435247692e-14
vertex 41.685739206595 118.215750730365 3.38395977905748e-14
endloop
endfacet
facet normal 7.16649516847055e-17 6.12519327460686e-18 -1.0
outer loop
vertex 42.6563106257295 114.593528881781 3.01486435247692e-14
vertex 42.5458780620857 119.824957344855 3.80695475143966e-14
vertex 48.9179430232336 121.987981933671 3.38395977905748e-14
endloop
endfacet
facet normal 7.16649516847055e-17 6.12519327460686e-18 -1.0
outer loop
vertex 42.6563106257295 114.593528881781 3.01486435247692e-14
vertex 48.9179430232336 121.987981933671 3.38395977905748e-14
vertex 43.8043609228247 111.821890284247 3.12682572063391e-14
endloop
endfacet
facet normal 7.16649516847055e-17 6.12519327460686e-18 -1.0
outer loop
vertex 43.8043609228247 111.821890284247 3.12682572063391e-14
vertex 48.9179430232336 121.987981933671 3.38395977905748e-14
vertex 50.9884953840537 114.260575323359 3.17454578474278e-14
endloop
endfacet
facet normal 7.16649516847055e-17 6.12519327460686e-18 -1.0
outer loop
vertex 5.52186345619758 66.1989751240156 2.83712737292831e-14
vertex 5.5218634561976 50.2747796731694 2.88435478365903e-14
vertex 5.00000000000002 58.2368773985925 2.85622624474998e-14
endloop
endfacet
facet normal 7.16649516847055e-17 6.12519327460686e-18 -1.0
outer loop
vertex 5.5218634561976 50.2747796731694 2.88435478365903e-14
vertex 5.52186345619758 66.1989751240156 2.83712737292831e-14
vertex 7.07852459636684 74.0248391498463 2.8273849551861e-14
endloop
endfacet
facet normal 7.16649516847055e-17 6.12519327460686e-18 -1.0
outer loop
vertex 5.5218634561976 50.2747796731694 2.88435478365903e-14
vertex 7.07852459636684 74.0248391498463 2.8273849551861e-14
vertex 7.07852459636688 42.4489156473387 2.92103170255602e-14
endloop
endfacet
facet normal 7.16649516847055e-17 6.12519327460686e-18 -1.0
outer loop
vertex 7.07852459636688 42.4489156473387 2.92103170255602e-14
vertex 7.07852459636684 74.0248391498463 2.8273849551861e-14
vertex 8.00000000000002 58.2368773985925 2.96336124823915e-14
endloop
endfacet
facet normal 7.16649516847055e-17 6.12519327460686e-18 -1.0
outer loop
vertex 8.00000000000002 58.2368773985925 2.96336124823915e-14
vertex 7.07852459636684 74.0248391498463 2.8273849551861e-14
vertex 8.49619804031901 65.8073965473555 2.95337145231116e-14
endloop
endfacet
facet normal 7.16649516847055e-17 6.12519327460686e-18 -1.0
outer loop
vertex 8.49619804031901 65.8073965473555 2.95337145231116e-14
vertex 7.07852459636684 74.0248391498463 2.8273849551861e-14
vertex 9.6433485168115 81.580566772863 2.82716568699202e-14
endloop
endfacet
facet normal 7.16649516847055e-17 6.12519327460686e-18 -1.0
outer loop
vertex 8.49619804031901 65.8073965473555 2.95337145231116e-14
vertex 9.6433485168115 81.580566772863 2.82716568699202e-14
vertex 9.97630207523404 73.2483820145387 2.95074914203545e-14
endloop
endfacet
facet normal 7.16649516847055e-17 6.12519327460686e-18 -1.0
outer loop
vertex 9.97630207523404 73.2483820145387 2.95074914203545e-14
vertex 9.6433485168115 81.580566772863 2.82716568699202e-14
vertex 13.1724503691492 88.7368773985925 2.83647332008567e-14
endloop
endfacet
facet normal 7.16649516847055e-17 6.12519327460686e-18 -1.0
outer loop
vertex 9.97630207523404 73.2483820145387 2.95074914203545e-14
vertex 13.1724503691492 88.7368773985925 2.83647332008567e-14
vertex 12.4149871143454 80.4325164757677 2.95553918586786e-14
endloop
endfacet
facet normal 7.16649516847055e-17 6.12519327460686e-18 -1.0
outer loop
vertex 12.4149871143454 80.4325164757677 2.95553918586786e-14
vertex 13.1724503691492 88.7368773985925 2.83647332008567e-14
vertex 15.7705265805025 87.2368773985925 2.96765962483037e-14
endloop
endfacet
facet normal 7.16649516847055e-17 6.12519327460686e-18 -1.0
outer loop
vertex 15.7705265805025 87.2368773985925 2.96765962483037e-14
vertex 13.1724503691492 88.7368773985925 2.83647332008567e-14
vertex 17.6054462422346 95.3713245681245 2.85514859828425e-14
endloop
endfacet
facet normal 7.16649516847055e-17 6.12519327460686e-18 -1.0
outer loop
vertex 15.7705265805025 87.2368773985925 2.96765962483037e-14
vertex 17.6054462422346 95.3713245681245 2.85514859828425e-14
vertex 19.9855062631083 93.5450402810983 2.98690307485192e-14
endloop
endfacet
facet normal 7.16649516847055e-17 6.12519327460686e-18 -1.0
outer loop
vertex 19.9855062631083 93.5450402810983 2.98690307485192e-14
vertex 17.6054462422346 95.3713245681245 2.85514859828425e-14
vertex 22.8664863476206 101.370391050972 2.88287198240001e-14
endloop
endfacet
facet normal 7.16649516847055e-17 6.12519327460686e-18 -1.0
outer loop
vertex 19.9855062631083 93.5450402810983 2.98690307485192e-14
vertex 22.8664863476206 101.370391050972 2.88287198240001e-14
vertex 24.9878066911802 99.2490707074123 3.01294027516734e-14
endloop
endfacet
facet normal 7.16649516847055e-17 6.12519327460686e-18 -1.0
outer loop
vertex 24.9878066911802 99.2490707074123 3.01294027516734e-14
vertex 22.8664863476206 101.370391050972 2.88287198240001e-14
vertex 28.865552830468 106.631431156358 2.91916911764437e-14
endloop
endfacet
facet normal 7.16649516847055e-17 6.12519327460686e-18 -1.0
outer loop
vertex 24.9878066911802 99.2490707074123 3.01294027516734e-14
vertex 28.865552830468 106.631431156358 2.91916911764437e-14
vertex 30.6918371174942 104.251371135484 3.04532572206036e-14
endloop
endfacet
facet normal 7.16649516847055e-17 6.12519327460686e-18 -1.0
outer loop
vertex 30.6918371174942 104.251371135484 3.04532572206036e-14
vertex 28.865552830468 106.631431156358 2.91916911764437e-14
vertex 35.4999999999999 111.064427029443 2.96341894996983e-14
endloop
endfacet
facet normal 7.16649516847055e-17 6.12519327460686e-18 -1.0
outer loop
vertex 30.6918371174942 104.251371135484 3.04532572206036e-14
vertex 35.4999999999999 111.064427029443 2.96341894996983e-14
vertex 37.0 108.46635081809 3.08350529155569e-14
endloop
endfacet
facet normal 7.16649516847055e-17 6.12519327460686e-18 -1.0
outer loop
vertex 37.0 108.46635081809 3.08350529155569e-14
vertex 35.4999999999999 111.064427029443 2.96341894996983e-14
vertex 42.6563106257295 114.593528881781 3.01486435247692e-14
endloop
endfacet
facet normal 7.16649516847055e-17 6.12519327460686e-18 -1.0
outer loop
vertex 37.0 108.46635081809 3.08350529155569e-14
vertex 42.6563106257295 114.593528881781 3.01486435247692e-14
vertex 43.8043609228247 111.821890284247 3.12682572063391e-14
endloop
endfacet
facet normal 7.16649516847055e-17 6.12519327460686e-18 -1.0
outer loop
vertex 7.07852459636688 42.4489156473387 2.92103170255602e-14
vertex 8.49619804031902 50.6663582498295 2.98054760164138e-14
vertex 9.64334851681156 34.893188024322 2.96562944918985e-14
endloop
endfacet
facet normal 7.16649516847055e-17 6.12519327460686e-18 -1.0
outer loop
vertex 8.49619804031902 50.6663582498295 2.98054760164138e-14
vertex 7.07852459636688 42.4489156473387 2.92103170255602e-14
vertex 8.00000000000002 58.2368773985925 2.96336124823915e-14
endloop
endfacet
facet normal 7.16649516847055e-17 6.12519327460686e-18 -1.0
outer loop
vertex 9.64334851681156 34.893188024322 2.96562944918985e-14
vertex 8.49619804031902 50.6663582498295 2.98054760164138e-14
vertex 9.97630207523408 43.2253727826463 3.00463644924619e-14
endloop
endfacet
facet normal 7.16649516847055e-17 6.12519327460686e-18 -1.0
outer loop
vertex 9.64334851681156 34.893188024322 2.96562944918985e-14
vertex 9.97630207523408 43.2253727826463 3.00463644924619e-14
vertex 13.1724503691493 27.7368773985925 3.01738494375081e-14
endloop
endfacet
facet normal 7.16649516847055e-17 6.12519327460686e-18 -1.0
outer loop
vertex 13.1724503691493 27.7368773985925 3.01738494375081e-14
vertex 9.97630207523408 43.2253727826463 3.00463644924619e-14
vertex 12.4149871143454 36.0412383214173 3.03521562419236e-14
endloop
endfacet
facet normal 7.16649516847055e-17 6.12519327460686e-18 -1.0
outer loop
vertex 13.1724503691493 27.7368773985925 3.01738494375081e-14
vertex 12.4149871143454 36.0412383214173 3.03521562419236e-14
vertex 15.7705265805026 29.2368773985925 3.07176190831842e-14
endloop
endfacet
facet normal 7.16649516847055e-17 6.12519327460686e-18 -1.0
outer loop
vertex 13.1724503691493 27.7368773985925 3.01738494375081e-14
vertex 15.7705265805026 29.2368773985925 3.07176190831842e-14
vertex 17.6054462422347 21.1024302290606 3.0754126353776e-14
endloop
endfacet
facet normal 7.16649516847055e-17 6.12519327460686e-18 -1.0
outer loop
vertex 17.6054462422347 21.1024302290606 3.0754126353776e-14
vertex 15.7705265805026 29.2368773985925 3.07176190831842e-14
vertex 19.9855062631084 22.9287145160867 3.11364998457043e-14
endloop
endfacet
facet normal 7.16649516847055e-17 6.12519327460686e-18 -1.0
outer loop
vertex 17.6054462422347 21.1024302290606 3.0754126353776e-14
vertex 19.9855062631084 22.9287145160867 3.11364998457043e-14
vertex 22.8664863476207 15.1033637462131 3.13871965417819e-14
endloop
endfacet
facet normal 7.16649516847055e-17 6.12519327460686e-18 -1.0
outer loop
vertex 22.8664863476207 15.1033637462131 3.13871965417819e-14
vertex 19.9855062631084 22.9287145160867 3.11364998457043e-14
vertex 24.9878066911803 17.2246840897728 3.16016313635014e-14
endloop
endfacet
facet normal 7.16649516847055e-17 6.12519327460686e-18 -1.0
outer loop
vertex 22.8664863476207 15.1033637462131 3.13871965417819e-14
vertex 24.9878066911803 17.2246840897728 3.16016313635014e-14
vertex 28.8655528304681 9.84232364082719 3.20622279950887e-14
endloop
endfacet
facet normal 7.16649516847055e-17 6.12519327460686e-18 -1.0
outer loop
vertex 28.8655528304681 9.84232364082719 3.20622279950887e-14
vertex 24.9878066911803 17.2246840897728 3.16016313635014e-14
vertex 30.6918371174943 12.2223836617009 3.21050551073473e-14
endloop
endfacet
facet normal 7.16649516847055e-17 6.12519327460686e-18 -1.0
outer loop
vertex 28.8655528304681 9.84232364082719 3.20622279950887e-14
vertex 30.6918371174943 12.2223836617009 3.21050551073473e-14
vertex 29.7285999789217 9.26565397271336 2.74478306186194e-14
endloop
endfacet
facet normal 7.16649516847055e-17 6.12519327460686e-18 -1.0
outer loop
vertex 29.7285999789217 9.26565397271336 2.74478306186194e-14
vertex 30.6918371174943 12.2223836617009 3.21050551073473e-14
vertex 35.1884026330826 5.61753047194797 2.75200924551059e-14
endloop
endfacet
facet normal 7.16649516847055e-17 6.12519327460686e-18 -1.0
outer loop
vertex 35.1884026330826 5.61753047194797 2.75200924551059e-14
vertex 30.6918371174943 12.2223836617009 3.21050551073473e-14
vertex 31.5124393242206 11.6740747969369 2.99682919731081e-14
endloop
endfacet
facet normal 7.16649516847055e-17 6.12519327460686e-18 -1.0
outer loop
vertex 35.1884026330826 5.61753047194797 2.75200924551059e-14
vertex 31.5124393242206 11.6740747969369 2.99682919731081e-14
vertex 35.1884026330826 9.21787464018024 2.7158245964636e-14
endloop
endfacet
facet normal 0.965925826289068 0.258819045102522 -1.92115914509783e-15
outer loop
vertex 48.9179430232336 121.987981933671 3.38395977905748e-14
vertex 50.9884953840537 114.260575323359 9.00000000000003
vertex 50.9884953840537 114.260575323359 3.17454578474278e-14
endloop
endfacet
facet normal 0.965925826289068 0.258819045102522 -1.92115914509783e-15
outer loop
vertex 50.9884953840537 114.260575323359 9.00000000000003
vertex 48.9179430232336 121.987981933671 3.38395977905748e-14
vertex 50.2120382487463 117.158352802226 7.50000000000003
endloop
endfacet
facet normal 0.965925826289068 0.258819045102522 -1.92115914509783e-15
outer loop
vertex 50.2120382487463 117.158352802226 7.50000000000003
vertex 48.9179430232336 121.987981933671 3.38395977905748e-14
vertex 48.9179430232336 121.987981933671 7.50000000000003
endloop
endfacet
facet normal 0.965925826289068 0.258819045102522 -1.92115914509783e-15
outer loop
vertex 50.2120382487463 117.158352802226 9.00000000000003
vertex 50.9884953840537 114.260575323359 9.00000000000003
vertex 50.2120382487463 117.158352802226 7.50000000000003
endloop
endfacet
facet normal -0.965925826289069 -0.258819045102519 2.63508147011167e-18
outer loop
vertex 41.685739206595 118.215750730365 7.50000000000003
vertex 42.6563106257295 114.593528881781 3.01486435247692e-14
vertex 42.6563106257295 114.593528881781 7.50000000000003
endloop
endfacet
facet normal -0.965925826289069 -0.258819045102519 2.63508147011167e-18
outer loop
vertex 42.6563106257295 114.593528881781 3.01486435247692e-14
vertex 41.685739206595 118.215750730365 7.50000000000003
vertex 41.685739206595 118.215750730365 3.38395977905748e-14
endloop
endfacet
facet normal -0.321439465303161 0.946930129495106 3.72055874524875e-18
outer loop
vertex 42.5458780620857 119.824957344855 3.80695475143966e-14
vertex 48.9179430232336 121.987981933671 7.50000000000003
vertex 48.9179430232336 121.987981933671 3.38395977905748e-14
endloop
endfacet
facet normal -0.321439465303161 0.946930129495106 3.72055874524875e-18
outer loop
vertex 48.9179430232336 121.987981933671 7.50000000000003
vertex 42.5458780620857 119.824957344855 3.80695475143966e-14
vertex 42.5458780620857 119.824957344855 7.50000000000003
endloop
endfacet
facet normal 3.96530997750056e-17 -5.80178271860683e-16 1.0
outer loop
vertex 42.6563106257295 114.593528881781 7.50000000000003
vertex 42.5458780620857 119.824957344855 7.50000000000003
vertex 41.685739206595 118.215750730365 7.50000000000003
endloop
endfacet
facet normal 3.96530997750056e-17 -5.80178271860683e-16 1.0
outer loop
vertex 42.5458780620857 119.824957344855 7.50000000000003
vertex 42.6563106257295 114.593528881781 7.50000000000003
vertex 48.9179430232336 121.987981933671 7.50000000000003
endloop
endfacet
facet normal 3.96530997750056e-17 -5.80178271860683e-16 1.0
outer loop
vertex 48.9179430232336 121.987981933671 7.50000000000003
vertex 42.6563106257295 114.593528881781 7.50000000000003
vertex 50.2120382487463 117.158352802226 7.50000000000003
endloop
endfacet
facet normal -0.321439465303155 0.946930129495108 5.62134357292575e-16
outer loop
vertex 42.6563106257295 114.593528881781 9.00000000000003
vertex 50.2120382487463 117.158352802226 7.50000000000003
vertex 42.6563106257295 114.593528881781 7.50000000000003
endloop
endfacet
facet normal -0.321439465303155 0.946930129495108 5.62134357292575e-16
outer loop
vertex 50.2120382487463 117.158352802226 7.50000000000003
vertex 42.6563106257295 114.593528881781 9.00000000000003
vertex 50.2120382487463 117.158352802226 9.00000000000003
endloop
endfacet
endsolid Warp Core MARC Lights1
