solid Warp Core Dilithium Plug01
facet normal 3.87230510378777e-17 -1.0 2.92551485851875e-15
outer loop
vertex 8.99907750487047 2.19977562346155e-15 1.08643181666165
vertex 8.75111149529072 2.90863400470592e-15 1.10308844105649
vertex 8.97322564615362 2.18764002582423e-15 1.06466996142451
endloop
endfacet
facet normal 3.87230510378777e-17 -1.0 2.92551485851875e-15
outer loop
vertex 8.75111149529072 2.90863400470592e-15 1.10308844105649
vertex 8.99907750487047 2.19977562346155e-15 1.08643181666165
vertex 8.99907750487046 4.28147039768783e-14 18.4872750599672
endloop
endfacet
facet normal 3.87230510378777e-17 -1.0 2.92551485851875e-15
outer loop
vertex 8.75111149529072 2.90863400470592e-15 1.10308844105649
vertex 8.99907750487046 4.28147039768783e-14 18.4872750599672
vertex 7.43893139797949 2.84172183812952e-15 1.49041463447191
endloop
endfacet
facet normal 3.87230510378777e-17 -1.0 2.92551485851875e-15
outer loop
vertex 7.43893139797949 2.84172183812952e-15 1.49041463447191
vertex 8.99907750487046 4.28147039768783e-14 18.4872750599672
vertex 6.19989893364221 2.7342896460348e-15 2.02173914968261
endloop
endfacet
facet normal 3.87230510378777e-17 -1.0 2.92551485851875e-15
outer loop
vertex 6.19989893364221 2.7342896460348e-15 2.02173914968261
vertex 8.99907750487046 4.28147039768783e-14 18.4872750599672
vertex 5.05580434569338 2.58436624631739e-15 2.68648659614016
endloop
endfacet
facet normal 3.87230510378777e-17 -1.0 2.92551485851875e-15
outer loop
vertex 5.05580434569338 2.58436624631739e-15 2.68648659614016
vertex 8.99907750487046 4.28147039768783e-14 18.4872750599672
vertex 4.02627655426683 2.38983362442307e-15 3.47159237099074
endloop
endfacet
facet normal 3.87230510378777e-17 -1.0 2.92551485851875e-15
outer loop
vertex 4.02627655426683 2.38983362442307e-15 3.47159237099074
vertex 8.99907750487046 4.28147039768783e-14 18.4872750599672
vertex 3.12835029293229 2.14894897111249e-15 4.36193034194829
endloop
endfacet
facet normal 3.87230510378777e-17 -1.0 2.92551485851875e-15
outer loop
vertex 3.12835029293229 2.14894897111249e-15 4.36193034194829
vertex 8.99907750487046 4.28147039768783e-14 18.4872750599672
vertex 2.3761504710135 1.86106496692876e-15 5.3408404186092
endloop
endfacet
facet normal 3.87230510378777e-17 -1.0 2.92551485851875e-15
outer loop
vertex 2.3761504710135 1.86106496692876e-15 5.3408404186092
vertex 8.99907750487046 4.28147039768783e-14 18.4872750599672
vertex 2.1270032592346 1.52750035528931e-15 5.78016265082874
endloop
endfacet
facet normal 3.87230510378777e-17 -1.0 2.92551485851875e-15
outer loop
vertex 2.1270032592346 1.52750035528931e-15 5.78016265082874
vertex 8.99907750487046 4.28147039768783e-14 18.4872750599672
vertex 1.780747445279 1.52750035528955e-15 6.39071685298024
endloop
endfacet
facet normal 3.87230510378777e-17 -1.0 2.92551485851875e-15
outer loop
vertex 1.780747445279 1.52750035528955e-15 6.39071685298024
vertex 8.99907750487046 4.28147039768783e-14 18.4872750599672
vertex 1.35022100158878 1.15240690048354e-15 7.49357772694258
endloop
endfacet
facet normal 3.87230510378777e-17 -1.0 2.92551485851875e-15
outer loop
vertex 1.35022100158878 1.15240690048354e-15 7.49357772694258
vertex 8.99907750487046 4.28147039768783e-14 18.4872750599672
vertex 1.08992104650721 7.43360929243025e-16 8.63150489562078
endloop
endfacet
facet normal 3.87230510378777e-17 -1.0 2.92551485851875e-15
outer loop
vertex 1.08992104650721 7.43360929243025e-16 8.63150489562078
vertex 8.99907750487046 4.28147039768783e-14 18.4872750599672
vertex 1.00283667062354 4.28326764192346e-14 9.78685343831433
endloop
endfacet
facet normal 3.87230510378777e-17 -1.0 2.92551485851875e-15
outer loop
vertex 1.00283667062354 4.28326764192346e-14 9.78685343831433
vertex 8.99907750487046 4.28147039768783e-14 18.4872750599672
vertex 1.08992104650722 4.49894565818557e-14 10.9422019810079
endloop
endfacet
facet normal 3.87230510378777e-17 -1.0 2.92551485851875e-15
outer loop
vertex 1.08992104650722 4.49894565818557e-14 10.9422019810079
vertex 8.99907750487046 4.28147039768783e-14 18.4872750599672
vertex 1.35022100158879 4.45533879432109e-14 12.0801291496864
endloop
endfacet
facet normal 3.87230510378777e-17 -1.0 2.92551485851875e-15
outer loop
vertex 1.35022100158879 4.45533879432109e-14 12.0801291496864
vertex 8.99907750487046 4.28147039768783e-14 18.4872750599672
vertex 1.78074744527899 4.41364701978876e-14 13.1829900236484
endloop
endfacet
facet normal 3.87230510378777e-17 -1.0 2.92551485851875e-15
outer loop
vertex 1.78074744527899 4.41364701978876e-14 13.1829900236484
vertex 8.99907750487046 4.28147039768783e-14 18.4872750599672
vertex 2.12700325923461 4.37501587952086e-14 13.7935442258
endloop
endfacet
facet normal 3.87230510378777e-17 -1.0 2.92551485851875e-15
outer loop
vertex 2.12700325923461 4.37501587952086e-14 13.7935442258
vertex 8.99907750487046 4.28147039768783e-14 18.4872750599672
vertex 2.37615047101344 4.37501587952086e-14 14.2328664580195
endloop
endfacet
facet normal 3.87230510378777e-17 -1.0 2.92551485851875e-15
outer loop
vertex 2.37615047101344 4.37501587952086e-14 14.2328664580195
vertex 8.99907750487046 4.28147039768783e-14 18.4872750599672
vertex 3.12835029293229 4.34026062936812e-14 15.2117765346802
endloop
endfacet
facet normal 3.87230510378777e-17 -1.0 2.92551485851875e-15
outer loop
vertex 3.12835029293229 4.34026062936812e-14 15.2117765346802
vertex 8.99907750487046 4.28147039768783e-14 18.4872750599672
vertex 4.02627655426688 4.30985654179791e-14 16.102114505638
endloop
endfacet
facet normal 3.87230510378777e-17 -1.0 2.92551485851875e-15
outer loop
vertex 4.02627655426688 4.30985654179791e-14 16.102114505638
vertex 8.99907750487046 4.28147039768783e-14 18.4872750599672
vertex 5.05580434569343 4.28399102728572e-14 16.8872202804885
endloop
endfacet
facet normal 3.87230510378777e-17 -1.0 2.92551485851875e-15
outer loop
vertex 5.05580434569343 4.28399102728572e-14 16.8872202804885
vertex 8.99907750487046 4.28147039768783e-14 18.4872750599672
vertex 6.19989893364225 4.26264626738458e-14 17.5519677269462
endloop
endfacet
facet normal 3.87230510378777e-17 -1.0 2.92551485851875e-15
outer loop
vertex 6.19989893364225 4.26264626738458e-14 17.5519677269462
vertex 8.99907750487046 4.28147039768783e-14 18.4872750599672
vertex 7.43893139797957 4.24568493455206e-14 18.0832922421569
endloop
endfacet
facet normal 3.87230510378777e-17 -1.0 2.92551485851875e-15
outer loop
vertex 7.43893139797957 4.24568493455206e-14 18.0832922421569
vertex 8.99907750487046 4.28147039768783e-14 18.4872750599672
vertex 8.75111149529062 4.23292280154208e-14 18.4706184355725
endloop
endfacet
facet normal 3.87230510378777e-17 -1.0 2.92551485851875e-15
outer loop
vertex 8.75111149529062 4.23292280154208e-14 18.4706184355725
vertex 8.99907750487046 4.28147039768783e-14 18.4872750599672
vertex 8.97322564615346 4.2241826043907e-14 18.5090369152044
endloop
endfacet
facet normal 3.25556966329746e-10 -1.0 2.95318841513e-12
outer loop
vertex 14.2488885047093 -8.84474671988942e-11 1.1030884410565
vertex 14.0009224951296 2.01207341015117e-10 1.08643181666164
vertex 14.0267743538464 -5.32470564580155e-11 1.06466996142451
endloop
endfacet
facet normal 3.25556966329746e-10 -1.0 2.95318841513e-12
outer loop
vertex 14.0009224951296 2.01207341015117e-10 1.08643181666164
vertex 14.2488885047093 -8.84474671988942e-11 1.1030884410565
vertex 14.0009224951296 3.12477838709504e-10 18.4872750599672
endloop
endfacet
facet normal 3.25556966329746e-10 -1.0 2.95318841513e-12
outer loop
vertex 14.0009224951296 3.12477838709504e-10 18.4872750599672
vertex 14.2488885047093 -8.84474671988942e-11 1.1030884410565
vertex 15.5610686020205 -1.23131389415066e-10 1.4904146344719
endloop
endfacet
facet normal 3.25556966329746e-10 -1.0 2.95318841513e-12
outer loop
vertex 14.0009224951296 3.12477838709504e-10 18.4872750599672
vertex 15.5610686020205 -1.23131389415066e-10 1.4904146344719
vertex 16.8001010663578 -1.56957740177392e-10 2.02173914968262
endloop
endfacet
facet normal 3.25556966329746e-10 -1.0 2.95318841513e-12
outer loop
vertex 14.0009224951296 3.12477838709504e-10 18.4872750599672
vertex 16.8001010663578 -1.56957740177392e-10 2.02173914968262
vertex 17.9441956543065 -1.89452812045165e-10 2.68648659614013
endloop
endfacet
facet normal 3.25556966329746e-10 -1.0 2.95318841513e-12
outer loop
vertex 14.0009224951296 3.12477838709504e-10 18.4872750599672
vertex 17.9441956543065 -1.89452812045165e-10 2.68648659614013
vertex 18.9737234457331 -2.19981768243315e-10 3.47159237099072
endloop
endfacet
facet normal 3.25556966329746e-10 -1.0 2.95318841513e-12
outer loop
vertex 14.0009224951296 3.12477838709504e-10 18.4872750599672
vertex 18.9737234457331 -2.19981768243315e-10 3.47159237099072
vertex 19.8716497070676 -2.4773866163982e-10 4.36193034194831
endloop
endfacet
facet normal 3.25556966329746e-10 -1.0 2.95318841513e-12
outer loop
vertex 14.0009224951296 3.12477838709504e-10 18.4872750599672
vertex 19.8716497070676 -2.4773866163982e-10 4.36193034194831
vertex 20.6238495289865 -2.71769411062212e-10 5.34084041860922
endloop
endfacet
facet normal 3.25556966329746e-10 -1.0 2.95318841513e-12
outer loop
vertex 14.0009224951296 3.12477838709504e-10 18.4872750599672
vertex 20.6238495289865 -2.71769411062212e-10 5.34084041860922
vertex 20.8729967407654 -2.717694110622e-10 5.78016265082878
endloop
endfacet
facet normal 3.25556966329746e-10 -1.0 2.95318841513e-12
outer loop
vertex 14.0009224951296 3.12477838709504e-10 18.4872750599672
vertex 20.8729967407654 -2.717694110622e-10 5.78016265082878
vertex 21.219252554721 -2.91041595888222e-10 6.39071685298022
endloop
endfacet
facet normal 3.25556966329746e-10 -1.0 2.95318841513e-12
outer loop
vertex 14.0009224951296 3.12477838709504e-10 18.4872750599672
vertex 21.219252554721 -2.91041595888222e-10 6.39071685298022
vertex 21.6497789984112 -3.04565274437901e-10 7.4935777269426
endloop
endfacet
facet normal 3.25556966329746e-10 -1.0 2.95318841513e-12
outer loop
vertex 14.0009224951296 3.12477838709504e-10 18.4872750599672
vertex 21.6497789984112 -3.04565274437901e-10 7.4935777269426
vertex 21.9100789534928 1.16117943884063e-09 8.63150489562079
endloop
endfacet
facet normal 3.25556966329746e-10 -1.0 2.95318841513e-12
outer loop
vertex 14.0009224951296 3.12477838709504e-10 18.4872750599672
vertex 21.9100789534928 1.16117943884063e-09 8.63150489562079
vertex 21.9971633293765 2.39234262400742e-08 9.78685343831388
endloop
endfacet
facet normal 3.25556966329746e-10 -1.0 2.95318841513e-12
outer loop
vertex 14.0009224951296 3.12477838709504e-10 18.4872750599672
vertex 21.9971633293765 2.39234262400742e-08 9.78685343831388
vertex 21.9100789534928 -3.04521464410886e-10 10.9422019810079
endloop
endfacet
facet normal 3.25556966329746e-10 -1.0 2.95318841513e-12
outer loop
vertex 14.0009224951296 3.12477838709504e-10 18.4872750599672
vertex 21.9100789534928 -3.04521464410886e-10 10.9422019810079
vertex 21.6497789984112 -2.90998611824907e-10 12.0801291496863
endloop
endfacet
facet normal 3.25556966329746e-10 -1.0 2.95318841513e-12
outer loop
vertex 14.0009224951296 3.12477838709504e-10 18.4872750599672
vertex 21.6497789984112 -2.90998611824907e-10 12.0801291496863
vertex 21.219252554721 -2.71727188403767e-10 13.1829900236484
endloop
endfacet
facet normal 3.25556966329746e-10 -1.0 2.95318841513e-12
outer loop
vertex 14.0009224951296 3.12477838709504e-10 18.4872750599672
vertex 21.219252554721 -2.71727188403767e-10 13.1829900236484
vertex 20.8729967407654 -2.71727188403767e-10 13.7935442258001
endloop
endfacet
facet normal 3.25556966329746e-10 -1.0 2.95318841513e-12
outer loop
vertex 14.0009224951296 3.12477838709504e-10 18.4872750599672
vertex 20.8729967407654 -2.71727188403767e-10 13.7935442258001
vertex 20.6238495289866 -2.47697120098457e-10 14.2328664580195
endloop
endfacet
facet normal 3.25556966329746e-10 -1.0 2.95318841513e-12
outer loop
vertex 14.0009224951296 3.12477838709504e-10 18.4872750599672
vertex 20.6238495289866 -2.47697120098457e-10 14.2328664580195
vertex 19.8716497070677 -2.19940818626881e-10 15.2117765346801
endloop
endfacet
facet normal 3.25556966329746e-10 -1.0 2.95318841513e-12
outer loop
vertex 14.0009224951296 3.12477838709504e-10 18.4872750599672
vertex 19.8716497070677 -2.19940818626881e-10 15.2117765346801
vertex 18.9737234457331 -1.89412361968482e-10 16.102114505638
endloop
endfacet
facet normal 3.25556966329746e-10 -1.0 2.95318841513e-12
outer loop
vertex 14.0009224951296 3.12477838709504e-10 18.4872750599672
vertex 18.9737234457331 -1.89412361968482e-10 16.102114505638
vertex 17.9441956543065 -1.56917698080993e-10 16.8872202804884
endloop
endfacet
facet normal 3.25556966329746e-10 -1.0 2.95318841513e-12
outer loop
vertex 14.0009224951296 3.12477838709504e-10 18.4872750599672
vertex 17.9441956543065 -1.56917698080993e-10 16.8872202804884
vertex 16.8001010663577 -1.23091666855342e-10 17.5519677269462
endloop
endfacet
facet normal 3.25556966329746e-10 -1.0 2.95318841513e-12
outer loop
vertex 14.0009224951296 3.12477838709504e-10 18.4872750599672
vertex 16.8001010663577 -1.23091666855342e-10 17.5519677269462
vertex 15.5610686020204 -8.84079796927565e-11 18.0832922421569
endloop
endfacet
facet normal 3.25556966329746e-10 -1.0 2.95318841513e-12
outer loop
vertex 14.0009224951296 3.12477838709504e-10 18.4872750599672
vertex 15.5610686020204 -8.84079796927565e-11 18.0832922421569
vertex 14.2488885047094 -5.32077232658216e-11 18.4706184355725
endloop
endfacet
facet normal 3.25556966329746e-10 -1.0 2.95318841513e-12
outer loop
vertex 14.0009224951296 3.12477838709504e-10 18.4872750599672
vertex 14.2488885047094 -5.32077232658216e-11 18.4706184355725
vertex 14.0267743538465 2.01247968079058e-10 18.5090369152044
endloop
endfacet
facet normal -0.17043653228727 2.87611082205649e-15 0.985368656119064
outer loop
vertex 8.97322564615346 4.2241826043907e-14 18.5090369152044
vertex 8.75111149529062 16.0 18.4706184355725
vertex 8.75111149529062 4.23292280154208e-14 18.4706184355725
endloop
endfacet
facet normal -0.17043653228727 2.87611082205649e-15 0.985368656119064
outer loop
vertex 8.75111149529062 16.0 18.4706184355725
vertex 8.97322564615346 4.2241826043907e-14 18.5090369152044
vertex 8.97322564615346 16.0 18.5090369152044
endloop
endfacet
facet normal -0.28310185567609 2.79486903760618e-15 0.959089849447253
outer loop
vertex 8.75111149529062 4.23292280154208e-14 18.4706184355725
vertex 7.43893139797957 16.0 18.0832922421569
vertex 7.43893139797957 4.24568493455206e-14 18.0832922421569
endloop
endfacet
facet normal -0.28310185567609 2.79486903760618e-15 0.959089849447253
outer loop
vertex 7.43893139797957 16.0 18.0832922421569
vertex 8.75111149529062 4.23292280154208e-14 18.4706184355725
vertex 8.75111149529062 16.0 18.4706184355725
endloop
endfacet
facet normal -0.394113930671161 2.67346704905795e-15 0.919061591870168
outer loop
vertex 6.19989893364225 4.26264626738458e-14 17.5519677269462
vertex 7.43893139797957 16.0 18.0832922421569
vertex 6.19989893364225 16.0 17.5519677269462
endloop
endfacet
facet normal -0.394113930671161 2.67346704905795e-15 0.919061591870168
outer loop
vertex 7.43893139797957 16.0 18.0832922421569
vertex 6.19989893364225 4.26264626738458e-14 17.5519677269462
vertex 7.43893139797957 4.24568493455206e-14 18.0832922421569
endloop
endfacet
facet normal -0.502381050874902 2.51008196503124e-15 0.864646332162364
outer loop
vertex 5.05580434569343 4.28399102728572e-14 16.8872202804885
vertex 6.19989893364225 16.0 17.5519677269462
vertex 5.05580434569343 16.0 16.8872202804884
endloop
endfacet
facet normal -0.502381050874902 2.51008196503124e-15 0.864646332162364
outer loop
vertex 6.19989893364225 16.0 17.5519677269462
vertex 5.05580434569343 4.28399102728572e-14 16.8872202804885
vertex 6.19989893364225 4.26264626738458e-14 17.5519677269462
endloop
endfacet
facet normal -0.606387019715234 2.30279948907368e-15 0.795169656312964
outer loop
vertex 4.02627655426688 4.30985654179791e-14 16.102114505638
vertex 5.05580434569343 16.0 16.8872202804884
vertex 4.02627655426688 16.0 16.102114505638
endloop
endfacet
facet normal -0.606387019715234 2.30279948907368e-15 0.795169656312964
outer loop
vertex 5.05580434569343 16.0 16.8872202804884
vertex 4.02627655426688 4.30985654179791e-14 16.102114505638
vertex 5.05580434569343 4.28399102728572e-14 16.8872202804885
endloop
endfacet
facet normal -0.704099917071089 2.05014587528703e-15 0.710100913096501
outer loop
vertex 3.12835029293229 4.34026062936812e-14 15.2117765346802
vertex 4.02627655426688 16.0 16.102114505638
vertex 3.12835029293229 16.0 15.2117765346801
endloop
endfacet
facet normal -0.704099917071089 2.05014587528703e-15 0.710100913096501
outer loop
vertex 4.02627655426688 16.0 16.102114505638
vertex 3.12835029293229 4.34026062936812e-14 15.2117765346802
vertex 4.02627655426688 4.30985654179791e-14 16.102114505638
endloop
endfacet
facet normal -0.792940155434586 1.75180974852809e-15 0.609299523961225
outer loop
vertex 3.12835029293229 16.0 15.2117765346801
vertex 2.37615047101344 4.37501587952086e-14 14.2328664580195
vertex 3.12835029293229 4.34026062936812e-14 15.2117765346802
endloop
endfacet
facet normal -0.792940155434586 1.75180974852809e-15 0.609299523961225
outer loop
vertex 2.37615047101344 4.37501587952086e-14 14.2328664580195
vertex 3.12835029293229 16.0 15.2117765346801
vertex 2.37615047101344 16.0 14.2328664580195
endloop
endfacet
facet normal -0.869854022723661 1.4095000293373e-15 0.493309212514286
outer loop
vertex 2.37615047101344 4.37501587952086e-14 14.2328664580195
vertex 2.12700325923461 16.0 13.7935442258
vertex 2.12700325923461 4.37501587952086e-14 13.7935442258
endloop
endfacet
facet normal -0.869854022723661 1.4095000293373e-15 0.493309212514286
outer loop
vertex 2.12700325923461 16.0 13.7935442258
vertex 2.37615047101344 4.37501587952086e-14 14.2328664580195
vertex 2.37615047101344 16.0 14.2328664580195
endloop
endfacet
facet normal -0.869854022723653 1.40950002933733e-15 0.493309212514299
outer loop
vertex 2.12700325923461 16.0 13.7935442258
vertex 1.78074744527899 4.41364701978876e-14 13.1829900236484
vertex 2.12700325923461 4.37501587952086e-14 13.7935442258
endloop
endfacet
facet normal -0.869854022723653 1.40950002933733e-15 0.493309212514299
outer loop
vertex 1.78074744527899 4.41364701978876e-14 13.1829900236484
vertex 2.12700325923461 16.0 13.7935442258
vertex 1.78074744527899 16.0 13.1829900236483
endloop
endfacet
facet normal -0.931537075774461 1.02778087699222e-15 0.363646361809887
outer loop
vertex 1.78074744527899 16.0 13.1829900236483
vertex 1.35022100158879 4.45533879432109e-14 12.0801291496864
vertex 1.78074744527899 4.41364701978876e-14 13.1829900236484
endloop
endfacet
facet normal -0.931537075774461 1.02778087699222e-15 0.363646361809887
outer loop
vertex 1.35022100158879 4.45533879432109e-14 12.0801291496864
vertex 1.78074744527899 16.0 13.1829900236483
vertex 1.35022100158879 16.0 12.0801291496863
endloop
endfacet
facet normal -0.974820844231852 6.14611088026567e-16 0.222989510181756
outer loop
vertex 1.35022100158879 16.0 12.0801291496863
vertex 1.08992104650722 4.49894565818557e-14 10.9422019810079
vertex 1.35022100158879 4.45533879432109e-14 12.0801291496864
endloop
endfacet
facet normal -0.974820844231852 6.14611088026567e-16 0.222989510181756
outer loop
vertex 1.08992104650722 4.49894565818557e-14 10.9422019810079
vertex 1.35022100158879 16.0 12.0801291496863
vertex 1.08992104650722 16.0 10.9422019810078
endloop
endfacet
facet normal -0.997171353315414 1.8127336662467e-16 0.0751617730439237
outer loop
vertex 1.08992104650722 4.49894565818557e-14 10.9422019810079
vertex 1.00283667062354 16.0 9.78685343831428
vertex 1.00283667062354 4.28326764192346e-14 9.78685343831433
endloop
endfacet
facet normal -0.997171353315414 1.8127336662467e-16 0.0751617730439237
outer loop
vertex 1.00283667062354 16.0 9.78685343831428
vertex 1.08992104650722 4.49894565818557e-14 10.9422019810079
vertex 1.08992104650722 16.0 10.9422019810078
endloop
endfacet
facet normal -0.997171353315415 -2.58500401040525e-16 -0.0751617730439134
outer loop
vertex 1.00283667062354 4.28326764192346e-14 9.78685343831433
vertex 1.08992104650721 16.0 8.63150489562073
vertex 1.08992104650721 7.43360929243025e-16 8.63150489562078
endloop
endfacet
facet normal -0.997171353315415 -2.58500401040525e-16 -0.0751617730439134
outer loop
vertex 1.08992104650721 16.0 8.63150489562073
vertex 1.00283667062354 4.28326764192346e-14 9.78685343831433
vertex 1.00283667062354 16.0 9.78685343831428
endloop
endfacet
facet normal -0.974820844231839 -6.9010716263468e-16 -0.22298951018181
outer loop
vertex 1.08992104650721 16.0 8.63150489562073
vertex 1.35022100158878 1.15240690048354e-15 7.49357772694258
vertex 1.08992104650721 7.43360929243025e-16 8.63150489562078
endloop
endfacet
facet normal -0.974820844231839 -6.9010716263468e-16 -0.22298951018181
outer loop
vertex 1.35022100158878 1.15240690048354e-15 7.49357772694258
vertex 1.08992104650721 16.0 8.63150489562073
vertex 1.35022100158878 16.0 7.49357772694253
endloop
endfacet
facet normal -0.931537075774495 -1.09992479244974e-15 -0.363646361809798
outer loop
vertex 1.35022100158878 16.0 7.49357772694253
vertex 1.780747445279 1.52750035528955e-15 6.39071685298024
vertex 1.35022100158878 1.15240690048354e-15 7.49357772694258
endloop
endfacet
facet normal -0.931537075774495 -1.09992479244974e-15 -0.363646361809798
outer loop
vertex 1.780747445279 1.52750035528955e-15 6.39071685298024
vertex 1.35022100158878 16.0 7.49357772694253
vertex 1.780747445279 16.0 6.39071685298019
endloop
endfacet
facet normal -0.869854022723596 -1.47686683277249e-15 -0.493309212514401
outer loop
vertex 1.780747445279 1.52750035528955e-15 6.39071685298024
vertex 2.1270032592346 16.0 5.78016265082869
vertex 2.1270032592346 1.52750035528931e-15 5.78016265082874
endloop
endfacet
facet normal -0.869854022723596 -1.47686683277249e-15 -0.493309212514401
outer loop
vertex 2.1270032592346 16.0 5.78016265082869
vertex 1.780747445279 1.52750035528955e-15 6.39071685298024
vertex 1.780747445279 16.0 6.39071685298019
endloop
endfacet
facet normal -0.869854022723642 -1.47686683277226e-15 -0.49330921251432
outer loop
vertex 2.1270032592346 16.0 5.78016265082869
vertex 2.3761504710135 1.86106496692876e-15 5.3408404186092
vertex 2.1270032592346 1.52750035528931e-15 5.78016265082874
endloop
endfacet
facet normal -0.869854022723642 -1.47686683277226e-15 -0.49330921251432
outer loop
vertex 2.3761504710135 1.86106496692876e-15 5.3408404186092
vertex 2.1270032592346 16.0 5.78016265082869
vertex 2.3761504710135 16.0 5.34084041860915
endloop
endfacet
facet normal -0.792940155434677 -1.81321987274549e-15 -0.609299523961106
outer loop
vertex 2.3761504710135 16.0 5.34084041860915
vertex 3.12835029293229 2.14894897111249e-15 4.36193034194829
vertex 2.3761504710135 1.86106496692876e-15 5.3408404186092
endloop
endfacet
facet normal -0.792940155434677 -1.81321987274549e-15 -0.609299523961106
outer loop
vertex 3.12835029293229 2.14894897111249e-15 4.36193034194829
vertex 2.3761504710135 16.0 5.34084041860915
vertex 3.12835029293229 16.0 4.36193034194824
endloop
endfacet
facet normal -0.704099917071001 -2.10467566933631e-15 -0.710100913096589
outer loop
vertex 4.02627655426682 16.0 3.4715923709907
vertex 3.12835029293229 2.14894897111249e-15 4.36193034194829
vertex 3.12835029293229 16.0 4.36193034194824
endloop
endfacet
facet normal -0.704099917071001 -2.10467566933631e-15 -0.710100913096589
outer loop
vertex 3.12835029293229 2.14894897111249e-15 4.36193034194829
vertex 4.02627655426682 16.0 3.4715923709907
vertex 4.02627655426683 2.38983362442307e-15 3.47159237099074
endloop
endfacet
facet normal -0.606387019715299 -2.34976180009982e-15 -0.795169656312914
outer loop
vertex 5.05580434569338 16.0 2.68648659614011
vertex 4.02627655426683 2.38983362442307e-15 3.47159237099074
vertex 4.02627655426682 16.0 3.4715923709907
endloop
endfacet
facet normal -0.606387019715299 -2.34976180009982e-15 -0.795169656312914
outer loop
vertex 4.02627655426683 2.38983362442307e-15 3.47159237099074
vertex 5.05580434569338 16.0 2.68648659614011
vertex 5.05580434569338 2.58436624631739e-15 2.68648659614016
endloop
endfacet
facet normal -0.502381050874767 -2.54898941917845e-15 -0.864646332162442
outer loop
vertex 6.19989893364221 16.0 2.02173914968257
vertex 5.05580434569338 2.58436624631739e-15 2.68648659614016
vertex 5.05580434569338 16.0 2.68648659614011
endloop
endfacet
facet normal -0.502381050874767 -2.54898941917845e-15 -0.864646332162442
outer loop
vertex 5.05580434569338 2.58436624631739e-15 2.68648659614016
vertex 6.19989893364221 16.0 2.02173914968257
vertex 6.19989893364221 2.7342896460348e-15 2.02173914968261
endloop
endfacet
facet normal -0.394113930671199 -2.70398963676214e-15 -0.919061591870152
outer loop
vertex 7.43893139797949 16.0 1.49041463447186
vertex 6.19989893364221 2.7342896460348e-15 2.02173914968261
vertex 6.19989893364221 16.0 2.02173914968257
endloop
endfacet
facet normal -0.394113930671199 -2.70398963676214e-15 -0.919061591870152
outer loop
vertex 6.19989893364221 2.7342896460348e-15 2.02173914968261
vertex 7.43893139797949 16.0 1.49041463447186
vertex 7.43893139797949 2.84172183812952e-15 1.49041463447191
endloop
endfacet
facet normal -0.283101855675897 -2.81679417281887e-15 -0.95908984944731
outer loop
vertex 8.75111149529072 16.0 1.10308844105645
vertex 7.43893139797949 2.84172183812952e-15 1.49041463447191
vertex 7.43893139797949 16.0 1.49041463447186
endloop
endfacet
facet normal -0.283101855675897 -2.81679417281887e-15 -0.95908984944731
outer loop
vertex 7.43893139797949 2.84172183812952e-15 1.49041463447191
vertex 8.75111149529072 16.0 1.10308844105645
vertex 8.75111149529072 2.90863400470592e-15 1.10308844105649
endloop
endfacet
facet normal -0.170436532287708 -2.88931046713325e-15 -0.985368656118988
outer loop
vertex 8.97322564615362 16.0 1.06466996142446
vertex 8.75111149529072 2.90863400470592e-15 1.10308844105649
vertex 8.75111149529072 16.0 1.10308844105645
endloop
endfacet
facet normal -0.170436532287708 -2.88931046713325e-15 -0.985368656118988
outer loop
vertex 8.75111149529072 2.90863400470592e-15 1.10308844105649
vertex 8.97322564615362 16.0 1.06466996142446
vertex 8.97322564615362 2.18764002582423e-15 1.06466996142451
endloop
endfacet
facet normal 0.643994950239178 -2.24849509256407e-15 -0.765029740641786
outer loop
vertex 8.99907750487047 16.0 1.0864318166616
vertex 8.97322564615362 2.18764002582423e-15 1.06466996142451
vertex 8.97322564615362 16.0 1.06466996142446
endloop
endfacet
facet normal 0.643994950239178 -2.24849509256407e-15 -0.765029740641786
outer loop
vertex 8.97322564615362 2.18764002582423e-15 1.06466996142451
vertex 8.99907750487047 16.0 1.0864318166616
vertex 8.99907750487047 2.19977562346155e-15 1.08643181666165
endloop
endfacet
facet normal 0.643994950239178 -2.24849509256407e-15 -0.765029740641786
outer loop
vertex 8.99907750487047 2.19977562346155e-15 1.08643181666165
vertex 8.99907750487047 16.0 1.0864318166616
vertex 8.99907750487047 13.0 1.08643181666161
endloop
endfacet
facet normal 1.0 -1.08863213797918e-19 6.43843089813198e-14
outer loop
vertex 8.99907750487047 13.0 1.08643181666161
vertex 8.99907750487046 4.28147039768783e-14 18.4872750599672
vertex 8.99907750487047 2.19977562346155e-15 1.08643181666165
endloop
endfacet
facet normal 1.0 -1.08863213797918e-19 6.43843089813198e-14
outer loop
vertex 8.99907750487046 4.28147039768783e-14 18.4872750599672
vertex 8.99907750487047 13.0 1.08643181666161
vertex 8.99907750487046 13.0 18.4872750599671
endloop
endfacet
facet normal 0.643994950239163 2.15732742370209e-15 0.765029740641799
outer loop
vertex 8.99907750487046 4.28147039768783e-14 18.4872750599672
vertex 8.97322564615346 16.0 18.5090369152044
vertex 8.97322564615346 4.2241826043907e-14 18.5090369152044
endloop
endfacet
facet normal 0.643994950239163 2.15732742370209e-15 0.765029740641799
outer loop
vertex 8.97322564615346 16.0 18.5090369152044
vertex 8.99907750487046 4.28147039768783e-14 18.4872750599672
vertex 8.99907750487046 16.0 18.4872750599671
endloop
endfacet
facet normal 0.643994950239163 2.15732742370209e-15 0.765029740641799
outer loop
vertex 8.99907750487046 16.0 18.4872750599671
vertex 8.99907750487046 4.28147039768783e-14 18.4872750599672
vertex 8.99907750487046 13.0 18.4872750599671
endloop
endfacet
facet normal 0.869854022723669 2.84643871839117e-10 0.493309212514271
outer loop
vertex 20.8729967355565 16.000000002308 13.7935442257528
vertex 20.6238495289866 -2.47697120098457e-10 14.2328664580195
vertex 20.8729967407654 -2.71727188403767e-10 13.7935442258001
endloop
endfacet
facet normal 0.869854022723669 2.84643871839117e-10 0.493309212514271
outer loop
vertex 20.6238495289866 -2.47697120098457e-10 14.2328664580195
vertex 20.8729967355565 16.000000002308 13.7935442257528
vertex 20.6238495237777 16.000000002332 14.2328664579723
endloop
endfacet
facet normal 0.792940155434558 2.59946567779818e-10 0.609299523961261
outer loop
vertex 20.6238495237777 16.000000002332 14.2328664579723
vertex 19.8716497070677 -2.19940818626881e-10 15.2117765346801
vertex 20.6238495289866 -2.47697120098457e-10 14.2328664580195
endloop
endfacet
facet normal 0.792940155434558 2.59946567779818e-10 0.609299523961261
outer loop
vertex 19.8716497070677 -2.19940818626881e-10 15.2117765346801
vertex 20.6238495237777 16.000000002332 14.2328664579723
vertex 19.8716497018588 16.0000000023598 15.2117765346329
endloop
endfacet
facet normal 0.704099917071098 2.31321694784822e-10 0.710100913096493
outer loop
vertex 18.9737234457331 -1.89412361968482e-10 16.102114505638
vertex 19.8716497018588 16.0000000023598 15.2117765346329
vertex 18.9737234405242 16.0000000023903 16.1021145055908
endloop
endfacet
facet normal 0.704099917071098 2.31321694784822e-10 0.710100913096493
outer loop
vertex 19.8716497018588 16.0000000023598 15.2117765346329
vertex 18.9737234457331 -1.89412361968482e-10 16.102114505638
vertex 19.8716497070677 -2.19940818626881e-10 15.2117765346801
endloop
endfacet
facet normal 0.606387019715233 1.99761804377313e-10 0.795169656312964
outer loop
vertex 17.9441956543065 -1.56917698080993e-10 16.8872202804884
vertex 18.9737234405242 16.0000000023903 16.1021145055908
vertex 17.9441956490976 16.0000000024228 16.8872202804412
endloop
endfacet
facet normal 0.606387019715233 1.99761804377313e-10 0.795169656312964
outer loop
vertex 18.9737234405242 16.0000000023903 16.1021145055908
vertex 17.9441956543065 -1.56917698080993e-10 16.8872202804884
vertex 18.9737234457331 -1.89412361968482e-10 16.102114505638
endloop
endfacet
facet normal 0.502381050874926 1.66107114395717e-10 0.86464633216235
outer loop
vertex 16.8001010663577 -1.23091666855342e-10 17.5519677269462
vertex 17.9441956490976 16.0000000024228 16.8872202804412
vertex 16.8001010611488 16.0000000024567 17.551967726899
endloop
endfacet
facet normal 0.502381050874926 1.66107114395717e-10 0.86464633216235
outer loop
vertex 17.9441956490976 16.0000000024228 16.8872202804412
vertex 16.8001010663577 -1.23091666855342e-10 17.5519677269462
vertex 17.9441956543065 -1.56917698080993e-10 16.8872202804884
endloop
endfacet
facet normal 0.394113930671162 1.31020697703497e-10 0.919061591870168
outer loop
vertex 15.5610686020204 -8.84079796927565e-11 18.0832922421569
vertex 16.8001010611488 16.0000000024567 17.551967726899
vertex 15.5610685968115 16.0000000024913 18.0832922421097
endloop
endfacet
facet normal 0.394113930671162 1.31020697703497e-10 0.919061591870168
outer loop
vertex 16.8001010611488 16.0000000024567 17.551967726899
vertex 15.5610686020204 -8.84079796927565e-11 18.0832922421569
vertex 16.8001010663577 -1.23091666855342e-10 17.5519677269462
endloop
endfacet
facet normal 0.283101855676078 9.49981543286817e-11 0.959089849447257
outer loop
vertex 14.2488885047094 -5.32077232658216e-11 18.4706184355725
vertex 15.5610685968115 16.0000000024913 18.0832922421097
vertex 14.2488884995005 16.0000000025265 18.4706184355253
endloop
endfacet
facet normal 0.283101855676078 9.49981543286817e-11 0.959089849447257
outer loop
vertex 15.5610685968115 16.0000000024913 18.0832922421097
vertex 14.2488885047094 -5.32077232658216e-11 18.4706184355725
vertex 15.5610686020204 -8.84079796927565e-11 18.0832922421569
endloop
endfacet
facet normal 0.17043653228727 5.83967797030882e-11 0.985368656119064
outer loop
vertex 14.0267743538465 2.01247968079058e-10 18.5090369152044
vertex 14.2488884995005 16.0000000025265 18.4706184355253
vertex 14.0267743486376 16.000000002781 18.5090369151572
endloop
endfacet
facet normal 0.17043653228727 5.83967797030882e-11 0.985368656119064
outer loop
vertex 14.2488884995005 16.0000000025265 18.4706184355253
vertex 14.0267743538465 2.01247968079058e-10 18.5090369152044
vertex 14.2488885047094 -5.32077232658216e-11 18.4706184355725
endloop
endfacet
facet normal -0.643994948017233 -2.15135222231425e-10 0.765029742512199
outer loop
vertex 14.0009224908973 13.0000000025291 18.4872750599288
vertex 14.0267743486376 16.000000002781 18.5090369151572
vertex 14.0009224894025 16.0000000025014 18.4872750599192
endloop
endfacet
facet normal -0.643994948017233 -2.15135222231425e-10 0.765029742512199
outer loop
vertex 14.0267743486376 16.000000002781 18.5090369151572
vertex 14.0009224908973 13.0000000025291 18.4872750599288
vertex 14.0009224951296 3.12477838709504e-10 18.4872750599672
endloop
endfacet
facet normal -0.643994948017233 -2.15135222231425e-10 0.765029742512199
outer loop
vertex 14.0267743486376 16.000000002781 18.5090369151572
vertex 14.0009224951296 3.12477838709504e-10 18.4872750599672
vertex 14.0267743538465 2.01247968079058e-10 18.5090369152044
endloop
endfacet
facet normal -1.0 -3.25556940397983e-10 -6.30852725958657e-14
outer loop
vertex 14.0009224951296 3.12477838709504e-10 18.4872750599672
vertex 14.0009224908973 13.0000000024178 1.08643181662324
vertex 14.0009224951296 2.01207341015117e-10 1.08643181666164
endloop
endfacet
facet normal -1.0 -3.25556940397983e-10 -6.30852725958657e-14
outer loop
vertex 14.0009224908973 13.0000000024178 1.08643181662324
vertex 14.0009224951296 3.12477838709504e-10 18.4872750599672
vertex 14.0009224908973 13.0000000025291 18.4872750599288
endloop
endfacet
facet normal -0.643994948009836 -2.19679548779637e-10 -0.765029742518425
outer loop
vertex 14.0267743486375 16.0000000025265 1.06466996137726
vertex 14.0009224908973 13.0000000024178 1.08643181662324
vertex 14.0009224894025 16.0000000023901 1.08643181661365
endloop
endfacet
facet normal -0.643994948009836 -2.19679548779637e-10 -0.765029742518425
outer loop
vertex 14.0009224908973 13.0000000024178 1.08643181662324
vertex 14.0267743486375 16.0000000025265 1.06466996137726
vertex 14.0009224951296 2.01207341015117e-10 1.08643181666164
endloop
endfacet
facet normal -0.643994948009836 -2.19679548779637e-10 -0.765029742518425
outer loop
vertex 14.0009224951296 2.01207341015117e-10 1.08643181666164
vertex 14.0267743486375 16.0000000025265 1.06466996137726
vertex 14.0267743538464 -5.32470564580155e-11 1.06466996142451
endloop
endfacet
facet normal 0.170436532287723 5.25768211034701e-11 -0.985368656118986
outer loop
vertex 14.2488884995004 16.0000000024913 1.10308844100925
vertex 14.0267743538464 -5.32470564580155e-11 1.06466996142451
vertex 14.0267743486375 16.0000000025265 1.06466996137726
endloop
endfacet
facet normal 0.170436532287723 5.25768211034701e-11 -0.985368656118986
outer loop
vertex 14.0267743538464 -5.32470564580155e-11 1.06466996142451
vertex 14.2488884995004 16.0000000024913 1.10308844100925
vertex 14.2488885047093 -8.84474671988942e-11 1.1030884410565
endloop
endfacet
facet normal 0.283101855675896 8.93334082637097e-11 -0.95908984944731
outer loop
vertex 15.5610685968116 16.0000000024566 1.49041463442465
vertex 14.2488885047093 -8.84474671988942e-11 1.1030884410565
vertex 14.2488884995004 16.0000000024913 1.10308844100925
endloop
endfacet
facet normal 0.283101855675896 8.93334082637097e-11 -0.95908984944731
outer loop
vertex 14.2488885047093 -8.84474671988942e-11 1.1030884410565
vertex 15.5610685968116 16.0000000024566 1.49041463442465
vertex 15.5610686020205 -1.23131389415066e-10 1.4904146344719
endloop
endfacet
facet normal 0.394113930671187 1.25592373611701e-10 -0.919061591870157
outer loop
vertex 16.8001010611489 16.0000000024228 2.02173914963536
vertex 15.5610686020205 -1.23131389415066e-10 1.4904146344719
vertex 15.5610685968116 16.0000000024566 1.49041463442465
endloop
endfacet
facet normal 0.394113930671187 1.25592373611701e-10 -0.919061591870157
outer loop
vertex 15.5610686020205 -1.23131389415066e-10 1.4904146344719
vertex 16.8001010611489 16.0000000024228 2.02173914963536
vertex 16.8001010663578 -1.56957740177392e-10 2.02173914968262
endloop
endfacet
facet normal 0.502381050874787 1.61000187333018e-10 -0.864646332162431
outer loop
vertex 17.9441956490976 16.0000000023903 2.68648659609288
vertex 16.8001010663578 -1.56957740177392e-10 2.02173914968262
vertex 16.8001010611489 16.0000000024228 2.02173914963536
endloop
endfacet
facet normal 0.502381050874787 1.61000187333018e-10 -0.864646332162431
outer loop
vertex 16.8001010663578 -1.56957740177392e-10 2.02173914968262
vertex 17.9441956490976 16.0000000023903 2.68648659609288
vertex 17.9441956543065 -1.89452812045165e-10 2.68648659614013
endloop
endfacet
facet normal 0.606387019715297 1.95065232743161e-10 -0.795169656312916
outer loop
vertex 18.9737234405242 16.0000000023598 3.47159237094346
vertex 17.9441956543065 -1.89452812045165e-10 2.68648659614013
vertex 17.9441956490976 16.0000000023903 2.68648659609288
endloop
endfacet
facet normal 0.606387019715297 1.95065232743161e-10 -0.795169656312916
outer loop
vertex 17.9441956543065 -1.89452812045165e-10 2.68648659614013
vertex 18.9737234405242 16.0000000023598 3.47159237094346
vertex 18.9737234457331 -2.19981768243315e-10 3.47159237099072
endloop
endfacet
facet normal 0.704099917071016 2.27127571204535e-10 -0.710100913096574
outer loop
vertex 19.8716497018587 16.000000002332 4.36193034190106
vertex 18.9737234457331 -2.19981768243315e-10 3.47159237099072
vertex 18.9737234405242 16.0000000023598 3.47159237094346
endloop
endfacet
facet normal 0.704099917071016 2.27127571204535e-10 -0.710100913096574
outer loop
vertex 18.9737234457331 -2.19981768243315e-10 3.47159237099072
vertex 19.8716497018587 16.000000002332 4.36193034190106
vertex 19.8716497070676 -2.4773866163982e-10 4.36193034194831
endloop
endfacet
facet normal 0.792940155434637 2.56347815188831e-10 -0.609299523961157
outer loop
vertex 19.8716497070676 -2.4773866163982e-10 4.36193034194831
vertex 20.6238495237776 16.000000002308 5.34084041856196
vertex 20.6238495289865 -2.71769411062212e-10 5.34084041860922
endloop
endfacet
facet normal 0.792940155434637 2.56347815188831e-10 -0.609299523961157
outer loop
vertex 20.6238495237776 16.000000002308 5.34084041856196
vertex 19.8716497070676 -2.4773866163982e-10 4.36193034194831
vertex 19.8716497018587 16.000000002332 4.36193034190106
endloop
endfacet
facet normal 0.869854022723659 2.81730201736166e-10 -0.493309212514289
outer loop
vertex 20.6238495237776 16.000000002308 5.34084041856196
vertex 20.8729967407654 -2.717694110622e-10 5.78016265082878
vertex 20.6238495289865 -2.71769411062212e-10 5.34084041860922
endloop
endfacet
facet normal 0.869854022723659 2.81730201736166e-10 -0.493309212514289
outer loop
vertex 20.8729967407654 -2.717694110622e-10 5.78016265082878
vertex 20.6238495237776 16.000000002308 5.34084041856196
vertex 20.8729967355565 16.000000002308 5.78016265078153
endloop
endfacet
facet normal 0.86985402272362 2.81730201736153e-10 -0.493309212514358
outer loop
vertex 20.8729967407654 -2.717694110622e-10 5.78016265082878
vertex 21.219252549512 16.0000000022887 6.39071685293297
vertex 21.219252554721 -2.91041595888222e-10 6.39071685298022
endloop
endfacet
facet normal 0.86985402272362 2.81730201736153e-10 -0.493309212514358
outer loop
vertex 21.219252549512 16.0000000022887 6.39071685293297
vertex 20.8729967407654 -2.717694110622e-10 5.78016265082878
vertex 20.8729967355565 16.000000002308 5.78016265078153
endloop
endfacet
facet normal 0.93153707577449 3.02194468189924e-10 -0.363646361809812
outer loop
vertex 21.219252554721 -2.91041595888222e-10 6.39071685298022
vertex 21.6497789932023 16.0000000022752 7.49357772689536
vertex 21.6497789984112 -3.04565274437901e-10 7.4935777269426
endloop
endfacet
facet normal 0.93153707577449 3.02194468189924e-10 -0.363646361809812
outer loop
vertex 21.6497789932023 16.0000000022752 7.49357772689536
vertex 21.219252554721 -2.91041595888222e-10 6.39071685298022
vertex 21.219252549512 16.0000000022887 6.39071685293297
endloop
endfacet
facet normal 0.974820844231835 3.16701186724953e-10 -0.22298951018183
outer loop
vertex 21.6497789932023 16.0000000022752 7.49357772689536
vertex 21.9100789534928 1.16117943884063e-09 8.63150489562079
vertex 21.6497789984112 -3.04565274437901e-10 7.4935777269426
endloop
endfacet
facet normal 0.974820844231835 3.16701186724953e-10 -0.22298951018183
outer loop
vertex 21.9100789534928 1.16117943884063e-09 8.63150489562079
vertex 21.6497789932023 16.0000000022752 7.49357772689536
vertex 21.9100789482839 16.0000000037409 8.63150489557354
endloop
endfacet
facet normal 0.997171353315411 3.24414113818878e-10 -0.0751617730439644
outer loop
vertex 21.9100789482839 16.0000000037409 8.63150489557354
vertex 21.9971633293765 2.39234262400742e-08 9.78685343831388
vertex 21.9100789534928 1.16117943884063e-09 8.63150489562079
endloop
endfacet
facet normal 0.997171353315411 3.24414113818878e-10 -0.0751617730439644
outer loop
vertex 21.9971633293765 2.39234262400742e-08 9.78685343831388
vertex 21.9100789482839 16.0000000037409 8.63150489557354
vertex 21.9971633241676 16.0000000265032 9.78685343826663
endloop
endfacet
facet normal 0.997171353315415 3.24858047573707e-10 0.0751617730439019
outer loop
vertex 21.9971633293765 2.39234262400742e-08 9.78685343831388
vertex 21.9100789482839 16.0000000022752 10.9422019809607
vertex 21.9100789534928 -3.04521464410886e-10 10.9422019810079
endloop
endfacet
facet normal 0.997171353315415 3.24858047573707e-10 0.0751617730439019
outer loop
vertex 21.9100789482839 16.0000000022752 10.9422019809607
vertex 21.9971633293765 2.39234262400742e-08 9.78685343831388
vertex 21.9971633241676 16.0000000265032 9.78685343826663
endloop
endfacet
facet normal 0.974820844231846 3.18018246801286e-10 0.222989510181782
outer loop
vertex 21.9100789482839 16.0000000022752 10.9422019809607
vertex 21.6497789984112 -2.90998611824907e-10 12.0801291496863
vertex 21.9100789534928 -3.04521464410886e-10 10.9422019810079
endloop
endfacet
facet normal 0.974820844231846 3.18018246801286e-10 0.222989510181782
outer loop
vertex 21.6497789984112 -2.90998611824907e-10 12.0801291496863
vertex 21.9100789482839 16.0000000022752 10.9422019809607
vertex 21.6497789932023 16.0000000022887 12.0801291496391
endloop
endfacet
facet normal 0.931537075774454 3.04342300635715e-10 0.363646361809904
outer loop
vertex 21.6497789932023 16.0000000022887 12.0801291496391
vertex 21.219252554721 -2.71727188403767e-10 13.1829900236484
vertex 21.6497789984112 -2.90998611824907e-10 12.0801291496863
endloop
endfacet
facet normal 0.931537075774454 3.04342300635715e-10 0.363646361809904
outer loop
vertex 21.219252554721 -2.71727188403767e-10 13.1829900236484
vertex 21.6497789932023 16.0000000022887 12.0801291496391
vertex 21.2192525495121 16.000000002308 13.1829900236011
endloop
endfacet
facet normal 0.869854022723671 2.84643871839118e-10 0.493309212514267
outer loop
vertex 21.2192525495121 16.000000002308 13.1829900236011
vertex 20.8729967407654 -2.71727188403767e-10 13.7935442258001
vertex 21.219252554721 -2.71727188403767e-10 13.1829900236484
endloop
endfacet
facet normal 0.869854022723671 2.84643871839118e-10 0.493309212514267
outer loop
vertex 20.8729967407654 -2.71727188403767e-10 13.7935442258001
vertex 21.2192525495121 16.000000002308 13.1829900236011
vertex 20.8729967355565 16.000000002308 13.7935442257528
endloop
endfacet
facet normal 4.98266472508002e-10 -1.0 3.19840008644192e-12
outer loop
vertex 14.0009224908973 13.0000000025291 18.4872750599288
vertex 8.99907750487047 13.0 1.08643181666161
vertex 14.0009224908973 13.0000000024178 1.08643181662324
endloop
endfacet
facet normal 4.98266472508002e-10 -1.0 3.19840008644192e-12
outer loop
vertex 8.99907750487047 13.0 1.08643181666161
vertex 14.0009224908973 13.0000000025291 18.4872750599288
vertex 8.99907750487046 13.0 18.4872750599671
endloop
endfacet
facet normal 8.61999475334914e-12 1.60033098099347e-12 1.0
outer loop
vertex 14.0009224908973 13.0000000025291 18.4872750599288
vertex 8.99907750487046 16.0 18.4872750599671
vertex 8.99907750487046 13.0 18.4872750599671
endloop
endfacet
facet normal 8.61999475334914e-12 1.60033098099347e-12 1.0
outer loop
vertex 8.99907750487046 16.0 18.4872750599671
vertex 14.0009224908973 13.0000000025291 18.4872750599288
vertex 14.0009224894025 16.0000000025014 18.4872750599192
endloop
endfacet
facet normal -8.62820487625384e-12 -1.60068347680584e-12 -1.0
outer loop
vertex 14.0009224894025 16.0000000023901 1.08643181661365
vertex 8.99907750487047 13.0 1.08643181666161
vertex 8.99907750487047 16.0 1.0864318166616
endloop
endfacet
facet normal -8.62820487625384e-12 -1.60068347680584e-12 -1.0
outer loop
vertex 8.99907750487047 13.0 1.08643181666161
vertex 14.0009224894025 16.0000000023901 1.08643181661365
vertex 14.0009224908973 13.0000000024178 1.08643181662324
endloop
endfacet
facet normal -2.31790009772074e-10 1.0 -1.47801390567102e-12
outer loop
vertex 8.75111149529062 16.0 18.4706184355725
vertex 8.99907750487046 16.0 18.4872750599671
vertex 14.0009224894025 16.0000000025014 18.4872750599192
endloop
endfacet
facet normal -2.31790009772074e-10 1.0 -1.47801390567102e-12
outer loop
vertex 8.99907750487046 16.0 18.4872750599671
vertex 8.75111149529062 16.0 18.4706184355725
vertex 8.97322564615346 16.0 18.5090369152044
endloop
endfacet
facet normal -2.31790009772074e-10 1.0 -1.47801390567102e-12
outer loop
vertex 8.75111149529072 16.0 1.10308844105645
vertex 8.99907750487047 16.0 1.0864318166616
vertex 8.97322564615362 16.0 1.06466996142446
endloop
endfacet
facet normal -2.31790009772074e-10 1.0 -1.47801390567102e-12
outer loop
vertex 8.99907750487047 16.0 1.0864318166616
vertex 8.75111149529072 16.0 1.10308844105645
vertex 14.2488884995004 16.0000000024913 1.10308844100925
endloop
endfacet
facet normal -2.31790009772074e-10 1.0 -1.47801390567102e-12
outer loop
vertex 14.2488884995004 16.0000000024913 1.10308844100925
vertex 8.75111149529072 16.0 1.10308844105645
vertex 15.5610685968116 16.0000000024566 1.49041463442465
endloop
endfacet
facet normal -2.31790009772074e-10 1.0 -1.47801390567102e-12
outer loop
vertex 15.5610685968116 16.0000000024566 1.49041463442465
vertex 8.75111149529072 16.0 1.10308844105645
vertex 7.43893139797949 16.0 1.49041463447186
endloop
endfacet
facet normal -2.31790009772074e-10 1.0 -1.47801390567102e-12
outer loop
vertex 15.5610685968116 16.0000000024566 1.49041463442465
vertex 7.43893139797949 16.0 1.49041463447186
vertex 16.8001010611489 16.0000000024228 2.02173914963536
endloop
endfacet
facet normal -2.31790009772074e-10 1.0 -1.47801390567102e-12
outer loop
vertex 16.8001010611489 16.0000000024228 2.02173914963536
vertex 7.43893139797949 16.0 1.49041463447186
vertex 6.19989893364221 16.0 2.02173914968257
endloop
endfacet
facet normal -2.31790009772074e-10 1.0 -1.47801390567102e-12
outer loop
vertex 16.8001010611489 16.0000000024228 2.02173914963536
vertex 6.19989893364221 16.0 2.02173914968257
vertex 17.9441956490976 16.0000000023903 2.68648659609288
endloop
endfacet
facet normal -2.31790009772074e-10 1.0 -1.47801390567102e-12
outer loop
vertex 17.9441956490976 16.0000000023903 2.68648659609288
vertex 6.19989893364221 16.0 2.02173914968257
vertex 5.05580434569338 16.0 2.68648659614011
endloop
endfacet
facet normal -2.31790009772074e-10 1.0 -1.47801390567102e-12
outer loop
vertex 17.9441956490976 16.0000000023903 2.68648659609288
vertex 5.05580434569338 16.0 2.68648659614011
vertex 18.9737234405242 16.0000000023598 3.47159237094346
endloop
endfacet
facet normal -2.31790009772074e-10 1.0 -1.47801390567102e-12
outer loop
vertex 18.9737234405242 16.0000000023598 3.47159237094346
vertex 5.05580434569338 16.0 2.68648659614011
vertex 4.02627655426682 16.0 3.4715923709907
endloop
endfacet
facet normal -2.31790009772074e-10 1.0 -1.47801390567102e-12
outer loop
vertex 18.9737234405242 16.0000000023598 3.47159237094346
vertex 4.02627655426682 16.0 3.4715923709907
vertex 19.8716497018587 16.000000002332 4.36193034190106
endloop
endfacet
facet normal -2.31790009772074e-10 1.0 -1.47801390567102e-12
outer loop
vertex 19.8716497018587 16.000000002332 4.36193034190106
vertex 4.02627655426682 16.0 3.4715923709907
vertex 3.12835029293229 16.0 4.36193034194824
endloop
endfacet
facet normal -2.31790009772074e-10 1.0 -1.47801390567102e-12
outer loop
vertex 19.8716497018587 16.000000002332 4.36193034190106
vertex 3.12835029293229 16.0 4.36193034194824
vertex 20.6238495237776 16.000000002308 5.34084041856196
endloop
endfacet
facet normal -2.31790009772074e-10 1.0 -1.47801390567102e-12
outer loop
vertex 20.6238495237776 16.000000002308 5.34084041856196
vertex 3.12835029293229 16.0 4.36193034194824
vertex 2.3761504710135 16.0 5.34084041860915
endloop
endfacet
facet normal -2.31790009772074e-10 1.0 -1.47801390567102e-12
outer loop
vertex 20.6238495237776 16.000000002308 5.34084041856196
vertex 2.3761504710135 16.0 5.34084041860915
vertex 20.8729967355565 16.000000002308 5.78016265078153
endloop
endfacet
facet normal -2.31790009772074e-10 1.0 -1.47801390567102e-12
outer loop
vertex 20.8729967355565 16.000000002308 5.78016265078153
vertex 2.3761504710135 16.0 5.34084041860915
vertex 2.1270032592346 16.0 5.78016265082869
endloop
endfacet
facet normal -2.31790009772074e-10 1.0 -1.47801390567102e-12
outer loop
vertex 20.8729967355565 16.000000002308 5.78016265078153
vertex 2.1270032592346 16.0 5.78016265082869
vertex 21.219252549512 16.0000000022887 6.39071685293297
endloop
endfacet
facet normal -2.31790009772074e-10 1.0 -1.47801390567102e-12
outer loop
vertex 21.219252549512 16.0000000022887 6.39071685293297
vertex 2.1270032592346 16.0 5.78016265082869
vertex 1.780747445279 16.0 6.39071685298019
endloop
endfacet
facet normal -2.31790009772074e-10 1.0 -1.47801390567102e-12
outer loop
vertex 21.219252549512 16.0000000022887 6.39071685293297
vertex 1.780747445279 16.0 6.39071685298019
vertex 21.6497789932023 16.0000000022752 7.49357772689536
endloop
endfacet
facet normal -2.31790009772074e-10 1.0 -1.47801390567102e-12
outer loop
vertex 21.6497789932023 16.0000000022752 7.49357772689536
vertex 1.780747445279 16.0 6.39071685298019
vertex 1.35022100158878 16.0 7.49357772694253
endloop
endfacet
facet normal -2.31790009772074e-10 1.0 -1.47801390567102e-12
outer loop
vertex 21.6497789932023 16.0000000022752 7.49357772689536
vertex 1.35022100158878 16.0 7.49357772694253
vertex 21.9100789482839 16.0000000037409 8.63150489557354
endloop
endfacet
facet normal -2.31790009772074e-10 1.0 -1.47801390567102e-12
outer loop
vertex 21.9100789482839 16.0000000037409 8.63150489557354
vertex 1.35022100158878 16.0 7.49357772694253
vertex 1.08992104650721 16.0 8.63150489562073
endloop
endfacet
facet normal -2.31790009772074e-10 1.0 -1.47801390567102e-12
outer loop
vertex 21.9100789482839 16.0000000037409 8.63150489557354
vertex 1.08992104650721 16.0 8.63150489562073
vertex 21.9971633241676 16.0000000265032 9.78685343826663
endloop
endfacet
facet normal -2.31790009772074e-10 1.0 -1.47801390567102e-12
outer loop
vertex 21.9971633241676 16.0000000265032 9.78685343826663
vertex 1.08992104650721 16.0 8.63150489562073
vertex 1.00283667062354 16.0 9.78685343831428
endloop
endfacet
facet normal -2.31790009772074e-10 1.0 -1.47801390567102e-12
outer loop
vertex 21.9971633241676 16.0000000265032 9.78685343826663
vertex 1.00283667062354 16.0 9.78685343831428
vertex 21.9100789482839 16.0000000022752 10.9422019809607
endloop
endfacet
facet normal -2.31790009772074e-10 1.0 -1.47801390567102e-12
outer loop
vertex 21.9100789482839 16.0000000022752 10.9422019809607
vertex 1.00283667062354 16.0 9.78685343831428
vertex 1.08992104650722 16.0 10.9422019810078
endloop
endfacet
facet normal -2.31790009772074e-10 1.0 -1.47801390567102e-12
outer loop
vertex 21.9100789482839 16.0000000022752 10.9422019809607
vertex 1.08992104650722 16.0 10.9422019810078
vertex 21.6497789932023 16.0000000022887 12.0801291496391
endloop
endfacet
facet normal -2.31790009772074e-10 1.0 -1.47801390567102e-12
outer loop
vertex 21.6497789932023 16.0000000022887 12.0801291496391
vertex 1.08992104650722 16.0 10.9422019810078
vertex 1.35022100158879 16.0 12.0801291496863
endloop
endfacet
facet normal -2.31790009772074e-10 1.0 -1.47801390567102e-12
outer loop
vertex 21.6497789932023 16.0000000022887 12.0801291496391
vertex 1.35022100158879 16.0 12.0801291496863
vertex 21.2192525495121 16.000000002308 13.1829900236011
endloop
endfacet
facet normal -2.31790009772074e-10 1.0 -1.47801390567102e-12
outer loop
vertex 21.2192525495121 16.000000002308 13.1829900236011
vertex 1.35022100158879 16.0 12.0801291496863
vertex 1.78074744527899 16.0 13.1829900236483
endloop
endfacet
facet normal -2.31790009772074e-10 1.0 -1.47801390567102e-12
outer loop
vertex 21.2192525495121 16.000000002308 13.1829900236011
vertex 1.78074744527899 16.0 13.1829900236483
vertex 20.8729967355565 16.000000002308 13.7935442257528
endloop
endfacet
facet normal -2.31790009772074e-10 1.0 -1.47801390567102e-12
outer loop
vertex 20.8729967355565 16.000000002308 13.7935442257528
vertex 1.78074744527899 16.0 13.1829900236483
vertex 2.12700325923461 16.0 13.7935442258
endloop
endfacet
facet normal -2.31790009772074e-10 1.0 -1.47801390567102e-12
outer loop
vertex 20.8729967355565 16.000000002308 13.7935442257528
vertex 2.12700325923461 16.0 13.7935442258
vertex 20.6238495237777 16.000000002332 14.2328664579723
endloop
endfacet
facet normal -2.31790009772074e-10 1.0 -1.47801390567102e-12
outer loop
vertex 20.6238495237777 16.000000002332 14.2328664579723
vertex 2.12700325923461 16.0 13.7935442258
vertex 2.37615047101344 16.0 14.2328664580195
endloop
endfacet
facet normal -2.31790009772074e-10 1.0 -1.47801390567102e-12
outer loop
vertex 20.6238495237777 16.000000002332 14.2328664579723
vertex 2.37615047101344 16.0 14.2328664580195
vertex 19.8716497018588 16.0000000023598 15.2117765346329
endloop
endfacet
facet normal -2.31790009772074e-10 1.0 -1.47801390567102e-12
outer loop
vertex 19.8716497018588 16.0000000023598 15.2117765346329
vertex 2.37615047101344 16.0 14.2328664580195
vertex 3.12835029293229 16.0 15.2117765346801
endloop
endfacet
facet normal -2.31790009772074e-10 1.0 -1.47801390567102e-12
outer loop
vertex 19.8716497018588 16.0000000023598 15.2117765346329
vertex 3.12835029293229 16.0 15.2117765346801
vertex 18.9737234405242 16.0000000023903 16.1021145055908
endloop
endfacet
facet normal -2.31790009772074e-10 1.0 -1.47801390567102e-12
outer loop
vertex 18.9737234405242 16.0000000023903 16.1021145055908
vertex 3.12835029293229 16.0 15.2117765346801
vertex 4.02627655426688 16.0 16.102114505638
endloop
endfacet
facet normal -2.31790009772074e-10 1.0 -1.47801390567102e-12
outer loop
vertex 18.9737234405242 16.0000000023903 16.1021145055908
vertex 4.02627655426688 16.0 16.102114505638
vertex 17.9441956490976 16.0000000024228 16.8872202804412
endloop
endfacet
facet normal -2.31790009772074e-10 1.0 -1.47801390567102e-12
outer loop
vertex 17.9441956490976 16.0000000024228 16.8872202804412
vertex 4.02627655426688 16.0 16.102114505638
vertex 5.05580434569343 16.0 16.8872202804884
endloop
endfacet
facet normal -2.31790009772074e-10 1.0 -1.47801390567102e-12
outer loop
vertex 17.9441956490976 16.0000000024228 16.8872202804412
vertex 5.05580434569343 16.0 16.8872202804884
vertex 16.8001010611488 16.0000000024567 17.551967726899
endloop
endfacet
facet normal -2.31790009772074e-10 1.0 -1.47801390567102e-12
outer loop
vertex 16.8001010611488 16.0000000024567 17.551967726899
vertex 5.05580434569343 16.0 16.8872202804884
vertex 6.19989893364225 16.0 17.5519677269462
endloop
endfacet
facet normal -2.31790009772074e-10 1.0 -1.47801390567102e-12
outer loop
vertex 16.8001010611488 16.0000000024567 17.551967726899
vertex 6.19989893364225 16.0 17.5519677269462
vertex 15.5610685968115 16.0000000024913 18.0832922421097
endloop
endfacet
facet normal -2.31790009772074e-10 1.0 -1.47801390567102e-12
outer loop
vertex 15.5610685968115 16.0000000024913 18.0832922421097
vertex 6.19989893364225 16.0 17.5519677269462
vertex 7.43893139797957 16.0 18.0832922421569
endloop
endfacet
facet normal -2.31790009772074e-10 1.0 -1.47801390567102e-12
outer loop
vertex 15.5610685968115 16.0000000024913 18.0832922421097
vertex 7.43893139797957 16.0 18.0832922421569
vertex 14.2488884995005 16.0000000025265 18.4706184355253
endloop
endfacet
facet normal -2.31790009772074e-10 1.0 -1.47801390567102e-12
outer loop
vertex 14.2488884995005 16.0000000025265 18.4706184355253
vertex 7.43893139797957 16.0 18.0832922421569
vertex 8.75111149529062 16.0 18.4706184355725
endloop
endfacet
facet normal -2.31790009772074e-10 1.0 -1.47801390567102e-12
outer loop
vertex 14.2488884995005 16.0000000025265 18.4706184355253
vertex 8.75111149529062 16.0 18.4706184355725
vertex 14.0009224894025 16.0000000025014 18.4872750599192
endloop
endfacet
facet normal -2.31790009772074e-10 1.0 -1.47801390567102e-12
outer loop
vertex 14.2488884995005 16.0000000025265 18.4706184355253
vertex 14.0009224894025 16.0000000025014 18.4872750599192
vertex 14.0267743486376 16.000000002781 18.5090369151572
endloop
endfacet
facet normal -2.31790009772074e-10 1.0 -1.47801390567102e-12
outer loop
vertex 14.0009224894025 16.0000000023901 1.08643181661365
vertex 14.2488884995004 16.0000000024913 1.10308844100925
vertex 14.0267743486375 16.0000000025265 1.06466996137726
endloop
endfacet
facet normal -2.31790009772074e-10 1.0 -1.47801390567102e-12
outer loop
vertex 14.2488884995004 16.0000000024913 1.10308844100925
vertex 14.0009224894025 16.0000000023901 1.08643181661365
vertex 8.99907750487047 16.0 1.0864318166616
endloop
endfacet
endsolid Warp Core Dilithium Plug01
